<svg id="Layer_1" data-name="Layer 1" xmlns="http://www.w3.org/2000/svg" xmlns:xlink="http://www.w3.org/1999/xlink" viewBox="0 0 450 450"><defs><style>.cls-1{fill:url(#radial-gradient);}.cls-2{fill:#68f3fb;}.cls-3{fill:#0863b4;}.cls-4{fill:#69cafb;}.cls-5{fill:#29bbf1;}.cls-6{fill:#0b8eed;}.cls-7{fill:#02237d;}.cls-8{fill:#022e90;}.cls-9{fill:#4d4d4d;}.cls-10{fill:#54baaf;}.cls-11{fill:#4cad8e;}.cls-12{fill:#66c4c6;}.cls-13{fill:#6eb9bc;}.cls-14{fill:#36b28d;}.cls-15{fill:#3179a9;}.cls-16{fill:#202d7c;}.cls-17{fill:#19619c;}.cls-18{fill:#91f0ff;}.cls-19{fill:#0ba5f4;}.cls-20{fill:#84cde0;}.cls-21{fill:#6bb6ef;}.cls-22{fill:#2145a2;}.cls-23{fill:#4170ce;}.cls-24{fill:#5380c9;}.cls-25{fill:#4165a3;}.cls-26{fill:#175ab2;}.cls-27{fill:#0951b2;}.cls-28{fill:#6191d6;}.cls-29{fill:#6076df;}.cls-30{fill:#85e8fb;}.cls-31{fill:#7ce1f2;}.cls-32{fill:#4bd4f7;}.cls-33{fill:#70e1fd;}.cls-34{fill:#54a9ef;}.cls-35{fill:#42a3e6;}.cls-36{fill:#1f73ca;}.cls-37{fill:#0da4f4;}.cls-38{fill:#0b68d4;}.cls-39{fill:#042d9f;}.cls-40{fill:#032f87;}.cls-41{fill:#03408d;}.cls-42{fill:#0876dd;}.cls-43{fill:#0539b3;}.cls-44{fill:#31b2a0;}.cls-45{fill:#299485;}.cls-46{fill:#0fc2a9;}.cls-47{fill:#38ccb7;}.cls-48{fill:#35bfac;}</style><radialGradient id="radial-gradient" cx="225" cy="225" r="321" gradientUnits="userSpaceOnUse"><stop offset="0.71" stop-color="#fff"/><stop offset="1" stop-color="#dedede"/></radialGradient></defs><rect class="cls-1" width="450" height="450"/><polygon class="cls-2" points="169.11 356.3 161.93 354.36 161.71 354.87 155.98 367.56 169.11 370.48 169.11 356.3"/><polygon class="cls-3" points="169.11 391.01 169.11 385.13 161.75 388.74 169.11 391.01"/><polygon class="cls-4" points="169.11 342.79 161.93 354.36 169.11 356.3 169.11 342.79"/><polygon class="cls-3" points="155.93 379.52 155.93 379.55 161.71 388.72 161.75 388.74 169.11 385.13 169.11 377.18 155.93 379.52"/><polygon class="cls-5" points="169.11 370.48 155.98 367.56 155.93 367.67 155.93 379.52 169.11 377.18 169.11 370.48"/><polygon class="cls-6" points="169.11 356.3 176.28 354.36 176.5 354.87 182.23 367.56 169.11 370.48 169.11 356.3"/><polygon class="cls-7" points="169.11 391.01 169.11 385.13 176.46 388.74 169.11 391.01"/><polygon class="cls-5" points="169.11 342.79 176.28 354.36 169.11 356.3 169.11 342.79"/><polygon class="cls-8" points="182.28 379.52 182.28 379.55 176.5 388.72 176.46 388.74 169.11 385.13 169.11 377.18 182.28 379.52"/><polygon class="cls-3" points="169.11 370.48 182.23 367.56 182.28 367.67 182.28 379.52 169.11 377.18 169.11 370.48"/><path class="cls-9" d="M157.39,301h.73l1.08,2.72,1.09-2.72H161l-1.34,3.27,1.47,3.47,2.78-6.79h.82l-3.24,7.67h-.67l-1.61-3.8-1.62,3.8h-.67L153.69,301h.8l2.79,6.79,1.45-3.47Z"/><path class="cls-9" d="M165.65,301.83v-1.08h.73v1.08Zm0,6.81V303h.73v5.63Z"/><path class="cls-9" d="M172.69,308.64H172v-3.15c0-1.33-.37-1.91-1.2-1.91a2.28,2.28,0,0,0-2.06,1.61v3.45H168V303h.67v1.27a2.75,2.75,0,0,1,2.38-1.37c1.27,0,1.68.95,1.68,2.43Z"/><path class="cls-9" d="M173.84,305.84a2.74,2.74,0,0,1,2.57-2.93,2.54,2.54,0,0,1,2.14,1.27v-3.43h.74v6.94c0,.2.07.3.26.3v.65l-.3,0a.57.57,0,0,1-.61-.53v-.6a2.53,2.53,0,0,1-2.1,1.2A2.82,2.82,0,0,1,173.84,305.84Zm4.71.86V305a2.27,2.27,0,0,0-1.94-1.4,2.15,2.15,0,0,0-2,2.28,2.19,2.19,0,0,0,2.09,2.26A2,2,0,0,0,178.55,306.7Z"/><polygon class="cls-10" points="152.24 287.9 158.24 287.9 158.24 282.78 152.24 280.56 152.24 287.9"/><polygon class="cls-11" points="152.24 275.27 152.24 280.56 158.24 282.78 158.24 272.11 152.24 275.27"/><polygon class="cls-12" points="158.24 238.11 152.24 238.11 152.24 247.29 158.24 243.78 158.24 238.11"/><polygon class="cls-13" points="158.24 265.04 152.24 261.34 152.24 275.27 158.24 272.11 158.24 265.04"/><polygon class="cls-14" points="158.24 243.78 152.24 247.29 152.24 261.34 158.24 265.04 158.24 243.78"/><polygon class="cls-15" points="190.89 254.41 160.51 238.11 169.08 252.34 190.89 254.41"/><polygon class="cls-16" points="169.08 252.34 160.51 265.04 190.89 254.41 169.08 252.34"/><polygon class="cls-17" points="160.51 238.11 160.51 265.04 169.08 252.34 160.51 238.11"/><polygon class="cls-16" points="173.8 262.19 173.8 264.59 196.08 263.77 173.8 262.19"/><polygon class="cls-17" points="184.39 258.69 184.39 261.08 194.74 260.26 184.39 258.69"/><polygon class="cls-13" points="173.8 240.71 173.8 238.32 196.08 239.14 173.8 240.71"/><polygon class="cls-14" points="184.39 244.22 184.39 241.82 194.74 242.64 184.39 244.22"/><polygon class="cls-18" points="52 250.8 53.35 248.11 56.2 246.7 69.53 255.62 52 250.8"/><polygon class="cls-19" points="52 250.8 61.9 264.1 69.53 255.62 52 250.8"/><polygon class="cls-5" points="52 250.8 61.9 264.1 44.81 261.96 52 250.8"/><polygon class="cls-2" points="52 250.8 45.63 255.11 44.81 261.96 52 250.8"/><polygon class="cls-20" points="42.84 259.86 45.63 255.11 44.81 261.96 42.84 259.86"/><polygon class="cls-21" points="42.84 259.86 42.84 265.55 44.81 261.96 42.84 259.86"/><polygon class="cls-22" points="45.42 268.06 61.9 264.1 44.81 261.96 45.42 268.06"/><polygon class="cls-23" points="45.42 268.06 61.9 264.1 44.81 261.96 45.42 268.06"/><polygon class="cls-24" points="45.42 268.06 61.9 264.1 47.62 272.02 45.42 268.06"/><polygon class="cls-25" points="52.6 273.32 61.9 264.1 47.62 272.02 52.6 273.32"/><polygon class="cls-26" points="52.6 273.32 61.9 264.1 61.9 273.32 52.6 273.32"/><polygon class="cls-27" points="69.94 273.32 61.9 264.1 61.9 273.32 69.94 273.32"/><polygon class="cls-28" points="45.42 268.06 42.84 265.55 44.81 261.96 45.42 268.06"/><polygon class="cls-29" points="45.42 268.06 42.84 265.55 47.62 272.02 45.42 268.06"/><polygon class="cls-30" points="62.37 246.7 56.2 246.7 69.53 255.62 62.37 246.7"/><polygon class="cls-31" points="62.37 246.7 66.95 242.53 69.53 255.62 62.37 246.7"/><polygon class="cls-32" points="78.98 250.4 66.95 242.53 69.53 255.62 78.98 250.4"/><polygon class="cls-33" points="78.98 250.4 66.95 242.53 73.53 240.24 78.98 250.4"/><polygon class="cls-4" points="78.98 250.4 78.98 241.13 73.53 240.24 78.98 250.4"/><polygon class="cls-34" points="78.98 250.4 78.98 241.13 83.59 244.02 78.98 250.4"/><polygon class="cls-35" points="78.98 250.4 86.98 248.31 83.59 244.02 78.98 250.4"/><polygon class="cls-36" points="78.98 250.4 86.98 248.31 88.47 252 78.98 250.4"/><polygon class="cls-37" points="78.98 250.4 78.98 259.82 69.53 255.62 78.98 250.4"/><polygon class="cls-6" points="78.98 250.4 78.98 259.82 88.47 252 78.98 250.4"/><polygon class="cls-38" points="92.56 254.19 78.98 259.82 88.47 252 92.56 254.19"/><polygon class="cls-3" points="92.56 254.19 78.98 259.82 95.55 258.77 92.56 254.19"/><polygon class="cls-39" points="95.95 264.1 78.98 259.82 95.55 258.77 95.95 264.1"/><polygon class="cls-40" points="95.95 264.1 78.98 259.82 94.45 268.54 95.95 264.1"/><polygon class="cls-7" points="90.47 272.02 78.98 259.82 94.45 268.54 90.47 272.02"/><polygon class="cls-40" points="90.47 272.02 78.98 259.82 84.79 273.32 90.47 272.02"/><polygon class="cls-41" points="77.71 273.32 78.98 259.82 84.79 273.32 77.71 273.32"/><polygon class="cls-8" points="77.71 273.32 78.98 259.82 69.94 273.32 77.71 273.32"/><polygon class="cls-42" points="61.9 264.1 78.98 259.82 69.53 255.62 61.9 264.1"/><polygon class="cls-43" points="61.9 264.1 78.98 259.82 69.94 273.32 61.9 264.1"/><path class="cls-9" d="M66.53,300.81v7.67h-.76v-3.59H61.22v3.59h-.74v-7.67h.74v3.41h4.55v-3.41Z"/><path class="cls-9" d="M67.83,306.87c0-1.05,1-1.73,2.38-1.73a4.84,4.84,0,0,1,1.65.29v-.5a1.49,1.49,0,0,0-1.58-1.62,3.15,3.15,0,0,0-1.81.67l-.26-.49a3.75,3.75,0,0,1,2.15-.74A2.08,2.08,0,0,1,72.6,305v2.54c0,.21.07.3.26.3v.65l-.3,0A.55.55,0,0,1,72,308l0-.44a2.8,2.8,0,0,1-2.18,1A1.8,1.8,0,0,1,67.83,306.87Zm3.85.37a.77.77,0,0,0,.18-.42v-.92a4.29,4.29,0,0,0-1.54-.29c-1,0-1.77.45-1.77,1.2A1.27,1.27,0,0,0,70,308,2.28,2.28,0,0,0,71.68,307.24Z"/><path class="cls-9" d="M74.19,301.67v-1.08h.74v1.08Zm0,6.81v-5.63h.74v5.63Z"/><path class="cls-9" d="M76.54,300.59h.73v6.62a.61.61,0,0,0,.66.67,1.82,1.82,0,0,0,.58-.12l.13.59a3.17,3.17,0,0,1-1,.19,1,1,0,0,1-1.09-1.09Z"/><polygon class="cls-44" points="56.16 290.98 59.91 284.49 63.65 290.98 56.16 290.98"/><polygon class="cls-45" points="63.65 290.98 59.91 284.49 67.4 284.49 63.65 290.98"/><polygon class="cls-46" points="67.4 284.49 59.91 284.49 63.65 278 67.4 284.49"/><polygon class="cls-44" points="63.65 278 59.91 284.49 56.16 278 63.65 278"/><polygon class="cls-47" points="56.16 278 59.91 284.49 52.41 284.49 56.16 278"/><polygon class="cls-48" points="52.41 284.49 59.91 284.49 56.16 290.98 52.41 284.49"/><polygon class="cls-44" points="73.59 290.98 77.34 284.49 81.08 290.98 73.59 290.98"/><polygon class="cls-45" points="81.08 290.98 77.34 284.49 84.83 284.49 81.08 290.98"/><polygon class="cls-46" points="84.83 284.49 77.34 284.49 81.08 278 84.83 284.49"/><polygon class="cls-44" points="81.08 278 77.34 284.49 73.59 278 81.08 278"/><polygon class="cls-47" points="73.59 278 77.34 284.49 69.84 284.49 73.59 278"/><polygon class="cls-48" points="69.84 284.49 77.34 284.49 73.59 290.98 69.84 284.49"/></svg>