<svg id="Layer_1" data-name="Layer 1" xmlns="http://www.w3.org/2000/svg" xmlns:xlink="http://www.w3.org/1999/xlink" viewBox="0 0 450 450"><defs><style>.cls-1{fill:url(#radial-gradient);}.cls-2{fill:#91f0ff;}.cls-3{fill:#0ba5f4;}.cls-4{fill:#29bbf1;}.cls-5{fill:#68f3fb;}.cls-6{fill:#84cde0;}.cls-7{fill:#6bb6ef;}.cls-8{fill:#2145a2;}.cls-9{fill:#4170ce;}.cls-10{fill:#5380c9;}.cls-11{fill:#4165a3;}.cls-12{fill:#175ab2;}.cls-13{fill:#0951b2;}.cls-14{fill:#6191d6;}.cls-15{fill:#6076df;}.cls-16{fill:#85e8fb;}.cls-17{fill:#7ce1f2;}.cls-18{fill:#4bd4f7;}.cls-19{fill:#70e1fd;}.cls-20{fill:#69cafb;}.cls-21{fill:#54a9ef;}.cls-22{fill:#42a3e6;}.cls-23{fill:#1f73ca;}.cls-24{fill:#0da4f4;}.cls-25{fill:#0b8eed;}.cls-26{fill:#0b68d4;}.cls-27{fill:#0863b4;}.cls-28{fill:#042d9f;}.cls-29{fill:#032f87;}.cls-30{fill:#02237d;}.cls-31{fill:#03408d;}.cls-32{fill:#022e90;}.cls-33{fill:#0876dd;}.cls-34{fill:#0539b3;}.cls-35{fill:#31b2a0;}.cls-36{fill:#299485;}.cls-37{fill:#0fc2a9;}.cls-38{fill:#38ccb7;}.cls-39{fill:#35bfac;}</style><radialGradient id="radial-gradient" cx="225" cy="225" r="321" gradientUnits="userSpaceOnUse"><stop offset="0.71" stop-color="#fff"/><stop offset="1" stop-color="#dedede"/></radialGradient></defs><rect class="cls-1" width="450" height="450"/><polygon class="cls-2" points="52 250.8 53.35 248.11 56.2 246.7 69.53 255.62 52 250.8"/><polygon class="cls-3" points="52 250.8 61.9 264.1 69.53 255.62 52 250.8"/><polygon class="cls-4" points="52 250.8 61.9 264.1 44.81 261.96 52 250.8"/><polygon class="cls-5" points="52 250.8 45.63 255.11 44.81 261.96 52 250.8"/><polygon class="cls-6" points="42.84 259.86 45.63 255.11 44.81 261.96 42.84 259.86"/><polygon class="cls-7" points="42.84 259.86 42.84 265.55 44.81 261.96 42.84 259.86"/><polygon class="cls-8" points="45.42 268.06 61.9 264.1 44.81 261.96 45.42 268.06"/><polygon class="cls-9" points="45.42 268.06 61.9 264.1 44.81 261.96 45.42 268.06"/><polygon class="cls-10" points="45.42 268.06 61.9 264.1 47.62 272.02 45.42 268.06"/><polygon class="cls-11" points="52.6 273.32 61.9 264.1 47.62 272.02 52.6 273.32"/><polygon class="cls-12" points="52.6 273.32 61.9 264.1 61.9 273.32 52.6 273.32"/><polygon class="cls-13" points="69.94 273.32 61.9 264.1 61.9 273.32 69.94 273.32"/><polygon class="cls-14" points="45.42 268.06 42.84 265.55 44.81 261.96 45.42 268.06"/><polygon class="cls-15" points="45.42 268.06 42.84 265.55 47.62 272.02 45.42 268.06"/><polygon class="cls-16" points="62.37 246.7 56.2 246.7 69.53 255.62 62.37 246.7"/><polygon class="cls-17" points="62.37 246.7 66.95 242.53 69.53 255.62 62.37 246.7"/><polygon class="cls-18" points="78.98 250.4 66.95 242.53 69.53 255.62 78.98 250.4"/><polygon class="cls-19" points="78.98 250.4 66.95 242.53 73.53 240.24 78.98 250.4"/><polygon class="cls-20" points="78.98 250.4 78.98 241.13 73.53 240.24 78.98 250.4"/><polygon class="cls-21" points="78.98 250.4 78.98 241.13 83.59 244.02 78.98 250.4"/><polygon class="cls-22" points="78.98 250.4 86.98 248.31 83.59 244.02 78.98 250.4"/><polygon class="cls-23" points="78.98 250.4 86.98 248.31 88.47 252 78.98 250.4"/><polygon class="cls-24" points="78.98 250.4 78.98 259.82 69.53 255.62 78.98 250.4"/><polygon class="cls-25" points="78.98 250.4 78.98 259.82 88.47 252 78.98 250.4"/><polygon class="cls-26" points="92.56 254.19 78.98 259.82 88.47 252 92.56 254.19"/><polygon class="cls-27" points="92.56 254.19 78.98 259.82 95.55 258.77 92.56 254.19"/><polygon class="cls-28" points="95.95 264.1 78.98 259.82 95.55 258.77 95.95 264.1"/><polygon class="cls-29" points="95.95 264.1 78.98 259.82 94.45 268.54 95.95 264.1"/><polygon class="cls-30" points="90.47 272.02 78.98 259.82 94.45 268.54 90.47 272.02"/><polygon class="cls-29" points="90.47 272.02 78.98 259.82 84.79 273.32 90.47 272.02"/><polygon class="cls-31" points="77.71 273.32 78.98 259.82 84.79 273.32 77.71 273.32"/><polygon class="cls-32" points="77.71 273.32 78.98 259.82 69.94 273.32 77.71 273.32"/><polygon class="cls-33" points="61.9 264.1 78.98 259.82 69.53 255.62 61.9 264.1"/><polygon class="cls-34" points="61.9 264.1 78.98 259.82 69.94 273.32 61.9 264.1"/><polygon class="cls-35" points="56.16 290.98 59.91 284.49 63.65 290.98 56.16 290.98"/><polygon class="cls-36" points="63.65 290.98 59.91 284.49 67.4 284.49 63.65 290.98"/><polygon class="cls-37" points="67.4 284.49 59.91 284.49 63.65 278 67.4 284.49"/><polygon class="cls-35" points="63.65 278 59.91 284.49 56.16 278 63.65 278"/><polygon class="cls-38" points="56.16 278 59.91 284.49 52.41 284.49 56.16 278"/><polygon class="cls-39" points="52.41 284.49 59.91 284.49 56.16 290.98 52.41 284.49"/><polygon class="cls-35" points="73.59 290.98 77.34 284.49 81.08 290.98 73.59 290.98"/><polygon class="cls-36" points="81.08 290.98 77.34 284.49 84.83 284.49 81.08 290.98"/><polygon class="cls-37" points="84.83 284.49 77.34 284.49 81.08 278 84.83 284.49"/><polygon class="cls-35" points="81.08 278 77.34 284.49 73.59 278 81.08 278"/><polygon class="cls-38" points="73.59 278 77.34 284.49 69.84 284.49 73.59 278"/><polygon class="cls-39" points="69.84 284.49 77.34 284.49 73.59 290.98 69.84 284.49"/></svg>