<svg id="Layer_1" data-name="Layer 1" xmlns="http://www.w3.org/2000/svg" xmlns:xlink="http://www.w3.org/1999/xlink" viewBox="0 0 450 450"><defs><style>.cls-1{fill:url(#radial-gradient);}.cls-2{fill:#68f3fb;}.cls-3{fill:#0863b4;}.cls-4{fill:#69cafb;}.cls-5{fill:#29bbf1;}.cls-6{fill:#0b8eed;}.cls-7{fill:#02237d;}.cls-8{fill:#022e90;}.cls-9{fill:#91f0ff;}.cls-10{fill:#0ba5f4;}.cls-11{fill:#84cde0;}.cls-12{fill:#6bb6ef;}.cls-13{fill:#2145a2;}.cls-14{fill:#4170ce;}.cls-15{fill:#5380c9;}.cls-16{fill:#4165a3;}.cls-17{fill:#175ab2;}.cls-18{fill:#0951b2;}.cls-19{fill:#6191d6;}.cls-20{fill:#6076df;}.cls-21{fill:#85e8fb;}.cls-22{fill:#7ce1f2;}.cls-23{fill:#4bd4f7;}.cls-24{fill:#70e1fd;}.cls-25{fill:#54a9ef;}.cls-26{fill:#42a3e6;}.cls-27{fill:#1f73ca;}.cls-28{fill:#0da4f4;}.cls-29{fill:#0b68d4;}.cls-30{fill:#042d9f;}.cls-31{fill:#032f87;}.cls-32{fill:#03408d;}.cls-33{fill:#0876dd;}.cls-34{fill:#0539b3;}.cls-35{fill:#4d4d4d;}.cls-36{fill:#fff;}.cls-37{fill:#54baaf;}.cls-38{fill:#4cad8e;}.cls-39{fill:#66c4c6;}.cls-40{fill:#6eb9bc;}.cls-41{fill:#36b28d;}.cls-42{fill:#3179a9;}.cls-43{fill:#202d7c;}.cls-44{fill:#19619c;}.cls-45{fill:#31b2a0;}.cls-46{fill:#299485;}.cls-47{fill:#0fc2a9;}.cls-48{fill:#38ccb7;}.cls-49{fill:#35bfac;}</style><radialGradient id="radial-gradient" cx="225" cy="225" r="321" gradientUnits="userSpaceOnUse"><stop offset="0.71" stop-color="#fff"/><stop offset="1" stop-color="#dedede"/></radialGradient></defs><rect class="cls-1" width="450" height="450"/><polygon class="cls-2" points="385.84 275.69 382.68 274.83 382.59 275.06 380.06 280.64 385.84 281.93 385.84 275.69"/><polygon class="cls-3" points="385.84 290.96 385.84 288.37 382.6 289.96 385.84 290.96"/><polygon class="cls-4" points="385.84 269.74 382.68 274.83 385.84 275.69 385.84 269.74"/><polygon class="cls-3" points="380.04 285.91 380.04 285.92 382.59 289.95 382.6 289.96 385.84 288.37 385.84 284.88 380.04 285.91"/><polygon class="cls-5" points="385.84 281.93 380.06 280.64 380.04 280.69 380.04 285.91 385.84 284.88 385.84 281.93"/><polygon class="cls-6" points="385.84 275.69 389 274.83 389.09 275.06 391.62 280.64 385.84 281.93 385.84 275.69"/><polygon class="cls-7" points="385.84 290.96 385.84 288.37 389.08 289.96 385.84 290.96"/><polygon class="cls-5" points="385.84 269.74 389 274.83 385.84 275.69 385.84 269.74"/><polygon class="cls-8" points="391.64 285.91 391.64 285.92 389.09 289.95 389.08 289.96 385.84 288.37 385.84 284.88 391.64 285.91"/><polygon class="cls-3" points="385.84 281.93 391.62 280.64 391.64 280.69 391.64 285.91 385.84 284.88 385.84 281.93"/><polygon class="cls-9" points="357.58 246.28 358.93 243.59 361.77 242.19 375.1 251.1 357.58 246.28"/><polygon class="cls-10" points="357.58 246.28 367.48 259.58 375.1 251.1 357.58 246.28"/><polygon class="cls-5" points="357.58 246.28 367.48 259.58 350.39 257.44 357.58 246.28"/><polygon class="cls-2" points="357.58 246.28 351.2 250.6 350.39 257.44 357.58 246.28"/><polygon class="cls-11" points="348.41 255.34 351.2 250.6 350.39 257.44 348.41 255.34"/><polygon class="cls-12" points="348.41 255.34 348.41 261.03 350.39 257.44 348.41 255.34"/><polygon class="cls-13" points="351 263.55 367.48 259.58 350.39 257.44 351 263.55"/><polygon class="cls-14" points="351 263.55 367.48 259.58 350.39 257.44 351 263.55"/><polygon class="cls-15" points="351 263.55 367.48 259.58 353.2 267.51 351 263.55"/><polygon class="cls-16" points="358.18 268.81 367.48 259.58 353.2 267.51 358.18 268.81"/><polygon class="cls-17" points="358.18 268.81 367.48 259.58 367.48 268.81 358.18 268.81"/><polygon class="cls-18" points="375.52 268.81 367.48 259.58 367.48 268.81 375.52 268.81"/><polygon class="cls-19" points="351 263.55 348.41 261.03 350.39 257.44 351 263.55"/><polygon class="cls-20" points="351 263.55 348.41 261.03 353.2 267.51 351 263.55"/><polygon class="cls-21" points="367.94 242.19 361.77 242.19 375.1 251.1 367.94 242.19"/><polygon class="cls-22" points="367.94 242.19 372.53 238.01 375.1 251.1 367.94 242.19"/><polygon class="cls-23" points="384.56 245.88 372.53 238.01 375.1 251.1 384.56 245.88"/><polygon class="cls-24" points="384.56 245.88 372.53 238.01 379.11 235.72 384.56 245.88"/><polygon class="cls-4" points="384.56 245.88 384.56 236.62 379.11 235.72 384.56 245.88"/><polygon class="cls-25" points="384.56 245.88 384.56 236.62 389.17 239.51 384.56 245.88"/><polygon class="cls-26" points="384.56 245.88 392.56 243.79 389.17 239.51 384.56 245.88"/><polygon class="cls-27" points="384.56 245.88 392.56 243.79 394.05 247.48 384.56 245.88"/><polygon class="cls-28" points="384.56 245.88 384.56 255.31 375.1 251.1 384.56 245.88"/><polygon class="cls-6" points="384.56 245.88 384.56 255.31 394.05 247.48 384.56 245.88"/><polygon class="cls-29" points="398.14 249.67 384.56 255.31 394.05 247.48 398.14 249.67"/><polygon class="cls-3" points="398.14 249.67 384.56 255.31 401.13 254.26 398.14 249.67"/><polygon class="cls-30" points="401.53 259.58 384.56 255.31 401.13 254.26 401.53 259.58"/><polygon class="cls-31" points="401.53 259.58 384.56 255.31 400.03 264.02 401.53 259.58"/><polygon class="cls-7" points="396.05 267.51 384.56 255.31 400.03 264.02 396.05 267.51"/><polygon class="cls-31" points="396.05 267.51 384.56 255.31 390.37 268.81 396.05 267.51"/><polygon class="cls-32" points="383.29 268.81 384.56 255.31 390.37 268.81 383.29 268.81"/><polygon class="cls-8" points="383.29 268.81 384.56 255.31 375.52 268.81 383.29 268.81"/><polygon class="cls-33" points="367.48 259.58 384.56 255.31 375.1 251.1 367.48 259.58"/><polygon class="cls-34" points="367.48 259.58 384.56 255.31 375.52 268.81 367.48 259.58"/><polygon class="cls-26" points="367.63 281.33 366.4 280.19 365.97 280.44 366.22 282.14 367.63 281.33"/><polygon class="cls-5" points="370.34 275.62 368.8 275.2 368.03 278.07 369.9 277.26 370.34 275.62"/><polygon class="cls-9" points="372.72 281.99 373.13 280.44 371.99 280.14 371.42 281.64 372.72 281.99"/><polygon class="cls-23" points="368.46 280.85 369.14 281.03 370.14 278.03 369.61 278.33 369.9 277.26 368.03 278.07 367.66 279.46 366.4 280.19 367.63 281.33 368.46 280.85"/><polygon class="cls-5" points="371.42 281.64 371.99 280.14 370.41 279.72 372 278.8 371.2 277.42 370.14 278.03 369.14 281.03 371.42 281.64"/><polygon class="cls-28" points="366.22 282.14 365.97 280.44 363.63 281.79 364.95 282.87 366.22 282.14"/><path class="cls-6" d="M355.5,283.28c.11.6.2,1.25.27,1.73l1,.25,2.57-1Z"/><path class="cls-31" d="M355,283.15l-.42,1.55,1.16.31c-.07-.48-.16-1.13-.27-1.73Z"/><path class="cls-28" d="M356.72,285.26l.61.17-.44.25L360,286l.09-.32,1.13-.65c0-.55.12-1.26.2-2l-2.13,1.22Z"/><path class="cls-17" d="M365,282.87l-1.32-1.08-2.21,1.28c-.08.7-.15,1.41-.2,2Z"/><polygon class="cls-5" points="357.4 289.53 358.93 289.94 358.13 286.81 357.4 289.53"/><polygon class="cls-33" points="355.63 286.41 356.43 287.79 358.13 286.81 359.83 286.64 360 286 356.89 285.68 355.63 286.41"/><polygon class="cls-21" points="358.93 289.94 358.95 289.94 359.83 286.64 358.13 286.81 358.93 289.94"/><polygon class="cls-26" points="363.15 286.32 364.75 285.82 364.75 285.33 363.15 284.69 363.15 286.32"/><polygon class="cls-5" points="366.74 291.52 367.87 290.39 365.77 288.3 365.54 290.32 366.74 291.52"/><polygon class="cls-9" points="360.03 290.39 361.17 291.52 362 290.69 360.98 289.44 360.03 290.39"/><polygon class="cls-23" points="363.15 287.27 362.65 287.77 364.75 290.14 364.75 289.53 365.54 290.32 365.77 288.3 364.75 287.27 364.75 285.82 363.15 286.32 363.15 287.27"/><polygon class="cls-5" points="360.98 289.44 362 290.69 363.15 289.53 363.15 291.37 364.75 291.37 364.75 290.14 362.65 287.77 360.98 289.44"/><polygon class="cls-28" points="363.15 284.69 364.75 285.33 364.75 282.63 363.15 283.23 363.15 284.69"/><path class="cls-6" d="M367.52,274.84l-1.63-.63-.69.69-.45,2.71Z"/><path class="cls-31" d="M367.87,274.49l-1.13-1.13-.85.85,1.63.63Z"/><path class="cls-28" d="M365.2,274.9l-.45.45v-.51l-1.83,2.54.23.23v1.31c.45.31,1,.73,1.6,1.15v-2.46Z"/><path class="cls-17" d="M363.15,283.22l1.6-.59v-2.56c-.57-.42-1.15-.84-1.6-1.15Z"/><polygon class="cls-5" points="361.17 273.36 360.05 274.48 363.15 275.35 361.17 273.36"/><polygon class="cls-33" points="364.75 273.38 363.15 273.38 363.15 275.35 362.45 276.9 362.92 277.38 364.75 274.85 364.75 273.38"/><polygon class="cls-21" points="360.05 274.48 360.03 274.49 362.45 276.9 363.15 275.35 360.05 274.48"/><polygon class="cls-26" points="366.83 285.12 367.2 283.48 366.77 283.23 365.42 284.3 366.83 285.12"/><polygon class="cls-5" points="373.13 284.61 372.72 283.06 369.85 283.83 371.49 285.05 373.13 284.61"/><polygon class="cls-9" points="368.8 289.85 370.35 289.44 370.04 288.3 368.45 288.56 368.8 289.85"/><polygon class="cls-23" points="367.66 285.59 367.84 286.27 370.94 285.64 370.42 285.34 371.49 285.05 369.85 283.83 368.46 284.21 367.2 283.48 366.83 285.12 367.66 285.59"/><polygon class="cls-5" points="368.45 288.56 370.04 288.3 369.62 286.72 371.2 287.64 372 286.25 370.94 285.64 367.84 286.27 368.45 288.56"/><polygon class="cls-28" points="365.42 284.3 366.77 283.23 364.44 281.89 364.15 283.57 365.42 284.3"/><path class="cls-6" d="M359.08,275.59c-.47.39-1,.8-1.37,1.1l.26.94,2.12,1.75Z"/><path class="cls-31" d="M359,275.12l-1.55.41.31,1.16c.39-.3.9-.71,1.37-1.1Z"/><path class="cls-28" d="M358,277.63l.16.62-.43-.26,1.27,2.86.32-.09,1.13.65,1.8-.81-2.13-1.22Z"/><path class="cls-17" d="M364.15,283.57l.29-1.68-2.22-1.29-1.8.81Z"/><polygon class="cls-5" points="354.62 280.36 355.03 281.89 357.33 279.63 354.62 280.36"/><polygon class="cls-33" points="356.43 277.26 355.63 278.65 357.33 279.63 358.33 281.02 358.97 280.85 357.69 277.99 356.43 277.26"/><polygon class="cls-21" points="355.03 281.89 355.03 281.9 358.33 281.02 357.33 279.63 355.03 281.89"/><polygon class="cls-2" points="169.11 356.3 161.93 354.36 161.71 354.87 155.98 367.56 169.11 370.48 169.11 356.3"/><polygon class="cls-3" points="169.11 391.01 169.11 385.13 161.75 388.74 169.11 391.01"/><polygon class="cls-4" points="169.11 342.79 161.93 354.36 169.11 356.3 169.11 342.79"/><polygon class="cls-3" points="155.93 379.52 155.93 379.55 161.71 388.72 161.75 388.74 169.11 385.13 169.11 377.18 155.93 379.52"/><polygon class="cls-5" points="169.11 370.48 155.98 367.56 155.93 367.67 155.93 379.52 169.11 377.18 169.11 370.48"/><polygon class="cls-6" points="169.11 356.3 176.28 354.36 176.5 354.87 182.23 367.56 169.11 370.48 169.11 356.3"/><polygon class="cls-7" points="169.11 391.01 169.11 385.13 176.46 388.74 169.11 391.01"/><polygon class="cls-5" points="169.11 342.79 176.28 354.36 169.11 356.3 169.11 342.79"/><polygon class="cls-8" points="182.28 379.52 182.28 379.55 176.5 388.72 176.46 388.74 169.11 385.13 169.11 377.18 182.28 379.52"/><polygon class="cls-3" points="169.11 370.48 182.23 367.56 182.28 367.67 182.28 379.52 169.11 377.18 169.11 370.48"/><path class="cls-35" d="M153.59,404.17v7.66h-.75v-3.58h-4.55v3.58h-.75v-7.66h.75v3.41h4.55v-3.41Z"/><path class="cls-35" d="M155.29,409.51v-3.3H156v3.17c0,1.29.43,1.91,1.31,1.91a2.22,2.22,0,0,0,2-1.54v-3.54h.73v4.67c0,.21.09.31.27.31v.64a1.37,1.37,0,0,1-.3,0,.56.56,0,0,1-.6-.53v-.78a2.71,2.71,0,0,1-2.38,1.38C155.9,411.94,155.29,411.11,155.29,409.51Z"/><path class="cls-35" d="M170.13,411.83h-.74v-3.14c0-1.31-.41-1.91-1.24-1.91a2,2,0,0,0-1.85,1.62v3.43h-.73v-3.14c0-1.33-.4-1.91-1.23-1.91a2,2,0,0,0-1.85,1.61v3.44h-.73v-5.62h.67v1.27a2.42,2.42,0,0,1,2.15-1.37,1.59,1.59,0,0,1,1.66,1.45,2.43,2.43,0,0,1,2.18-1.45c1.25,0,1.71,1,1.71,2.43Z"/><path class="cls-35" d="M171.65,405V404h.73V405Zm0,6.8v-5.62h.73v5.62Z"/><path class="cls-35" d="M173.59,409a2.74,2.74,0,0,1,2.57-2.93,2.54,2.54,0,0,1,2.14,1.27V404H179v6.93c0,.21.07.31.26.31v.64a1.24,1.24,0,0,1-.3,0,.57.57,0,0,1-.61-.53v-.6a2.52,2.52,0,0,1-2.1,1.2A2.82,2.82,0,0,1,173.59,409Zm4.71.86v-1.74a2.27,2.27,0,0,0-1.94-1.4,2.15,2.15,0,0,0-2,2.28,2.18,2.18,0,0,0,2.09,2.25A2,2,0,0,0,178.3,409.9Z"/><path class="cls-35" d="M180.69,405V404h.73V405Zm0,6.8v-5.62h.73v5.62Z"/><path class="cls-35" d="M185.72,411.56a2.94,2.94,0,0,1-1.27.34,1.07,1.07,0,0,1-1.19-1.08v-4h-.78v-.58h.78V404.3H184v1.91h1.3v.58H184v3.82a.64.64,0,0,0,.68.61,1.86,1.86,0,0,0,.86-.25Z"/><path class="cls-35" d="M186.9,413.57l.21,0a1.38,1.38,0,0,0,.41-.07c.16-.06.29-.27.86-1.7l-2.45-5.62h.76l2.09,4.94,1.92-4.94h.7l-2.92,7.26a1.14,1.14,0,0,1-1.21.78,2,2,0,0,1-.37,0Z"/><path class="cls-36" d="M167.37,371.09a4.05,4.05,0,0,1-4.05,4.16,4.25,4.25,0,0,1-1.62-.3,3.86,3.86,0,0,1-1.27-.86,3.78,3.78,0,0,1-.84-1.31,4.58,4.58,0,0,1-.3-1.69,4.91,4.91,0,0,1,.3-1.75,3.85,3.85,0,0,1,2.11-2.2,4.52,4.52,0,0,1,3.24,0,3.8,3.8,0,0,1,2.13,2.2A4.91,4.91,0,0,1,167.37,371.09Zm5.31-3.56a1.89,1.89,0,0,1,.42-.36,1.31,1.31,0,0,1,.71-.17h2.62l-12.72,16.37a1.68,1.68,0,0,1-.43.36,1.28,1.28,0,0,1-.63.15H160Zm-8.07,3.56a4.42,4.42,0,0,0-.09-1,1.7,1.7,0,0,0-.28-.62.84.84,0,0,0-.41-.32,1.25,1.25,0,0,0-.51-.1,1.19,1.19,0,0,0-.51.1.82.82,0,0,0-.4.32,1.9,1.9,0,0,0-.25.62,4.42,4.42,0,0,0-.09,1,3.91,3.91,0,0,0,.09.92,1.87,1.87,0,0,0,.25.6.93.93,0,0,0,.4.31,1.36,1.36,0,0,0,.51.09,1.44,1.44,0,0,0,.51-.09,1,1,0,0,0,.41-.31,1.67,1.67,0,0,0,.28-.6A3.91,3.91,0,0,0,164.61,371.09Zm12.47,8.82a4.26,4.26,0,0,1-.34,1.7,4.21,4.21,0,0,1-.89,1.32,3.86,3.86,0,0,1-1.29.85,4,4,0,0,1-1.54.3,4.23,4.23,0,0,1-1.61-.3,3.73,3.73,0,0,1-1.28-.85,3.92,3.92,0,0,1-.84-1.32,4.63,4.63,0,0,1-.3-1.7,4.81,4.81,0,0,1,.3-1.74,3.91,3.91,0,0,1,.84-1.34,3.75,3.75,0,0,1,1.28-.86,4.24,4.24,0,0,1,1.61-.31,4.34,4.34,0,0,1,1.63.31,3.7,3.7,0,0,1,1.29.86,4.24,4.24,0,0,1,.84,1.34A4.81,4.81,0,0,1,177.08,379.91Zm-2.76,0a3.77,3.77,0,0,0-.1-1,1.55,1.55,0,0,0-.27-.62.91.91,0,0,0-.41-.33,1.46,1.46,0,0,0-.52-.09,1.44,1.44,0,0,0-.51.09.87.87,0,0,0-.39.33,1.89,1.89,0,0,0-.26.62,4.35,4.35,0,0,0-.09,1,4.06,4.06,0,0,0,.09.93,1.8,1.8,0,0,0,.26.59.88.88,0,0,0,.39.31,1.25,1.25,0,0,0,.51.1,1.27,1.27,0,0,0,.52-.1.94.94,0,0,0,.41-.31,1.47,1.47,0,0,0,.27-.59A3.53,3.53,0,0,0,174.32,379.91Z"/><path class="cls-35" d="M157.39,301h.73l1.08,2.72,1.09-2.72H161l-1.34,3.27,1.47,3.47,2.78-6.79h.82l-3.24,7.67h-.67l-1.61-3.8-1.62,3.8h-.67L153.69,301h.8l2.79,6.79,1.45-3.47Z"/><path class="cls-35" d="M165.65,301.83v-1.08h.73v1.08Zm0,6.81V303h.73v5.63Z"/><path class="cls-35" d="M172.69,308.64H172v-3.15c0-1.33-.37-1.91-1.2-1.91a2.28,2.28,0,0,0-2.06,1.61v3.45H168V303h.67v1.27a2.75,2.75,0,0,1,2.38-1.37c1.27,0,1.68.95,1.68,2.43Z"/><path class="cls-35" d="M173.84,305.84a2.74,2.74,0,0,1,2.57-2.93,2.54,2.54,0,0,1,2.14,1.27v-3.43h.74v6.94c0,.2.07.3.26.3v.65l-.3,0a.57.57,0,0,1-.61-.53v-.6a2.53,2.53,0,0,1-2.1,1.2A2.82,2.82,0,0,1,173.84,305.84Zm4.71.86V305a2.27,2.27,0,0,0-1.94-1.4,2.15,2.15,0,0,0-2,2.28,2.19,2.19,0,0,0,2.09,2.26A2,2,0,0,0,178.55,306.7Z"/><polygon class="cls-37" points="152.24 287.9 158.24 287.9 158.24 282.78 152.24 280.56 152.24 287.9"/><polygon class="cls-38" points="152.24 275.27 152.24 280.56 158.24 282.78 158.24 272.11 152.24 275.27"/><polygon class="cls-39" points="158.24 238.11 152.24 238.11 152.24 247.29 158.24 243.78 158.24 238.11"/><polygon class="cls-40" points="158.24 265.04 152.24 261.34 152.24 275.27 158.24 272.11 158.24 265.04"/><polygon class="cls-41" points="158.24 243.78 152.24 247.29 152.24 261.34 158.24 265.04 158.24 243.78"/><polygon class="cls-42" points="190.89 254.41 160.51 238.11 169.08 252.34 190.89 254.41"/><polygon class="cls-43" points="169.08 252.34 160.51 265.04 190.89 254.41 169.08 252.34"/><polygon class="cls-44" points="160.51 238.11 160.51 265.04 169.08 252.34 160.51 238.11"/><polygon class="cls-43" points="173.8 262.19 173.8 264.59 196.08 263.77 173.8 262.19"/><polygon class="cls-44" points="184.39 258.69 184.39 261.08 194.74 260.26 184.39 258.69"/><polygon class="cls-40" points="173.8 240.71 173.8 238.32 196.08 239.14 173.8 240.71"/><polygon class="cls-41" points="184.39 244.22 184.39 241.82 194.74 242.64 184.39 244.22"/><polygon class="cls-9" points="52 250.8 53.35 248.11 56.2 246.7 69.53 255.62 52 250.8"/><polygon class="cls-10" points="52 250.8 61.9 264.1 69.53 255.62 52 250.8"/><polygon class="cls-5" points="52 250.8 61.9 264.1 44.81 261.96 52 250.8"/><polygon class="cls-2" points="52 250.8 45.63 255.11 44.81 261.96 52 250.8"/><polygon class="cls-11" points="42.84 259.86 45.63 255.11 44.81 261.96 42.84 259.86"/><polygon class="cls-12" points="42.84 259.86 42.84 265.55 44.81 261.96 42.84 259.86"/><polygon class="cls-13" points="45.42 268.06 61.9 264.1 44.81 261.96 45.42 268.06"/><polygon class="cls-14" points="45.42 268.06 61.9 264.1 44.81 261.96 45.42 268.06"/><polygon class="cls-15" points="45.42 268.06 61.9 264.1 47.62 272.02 45.42 268.06"/><polygon class="cls-16" points="52.6 273.32 61.9 264.1 47.62 272.02 52.6 273.32"/><polygon class="cls-17" points="52.6 273.32 61.9 264.1 61.9 273.32 52.6 273.32"/><polygon class="cls-18" points="69.94 273.32 61.9 264.1 61.9 273.32 69.94 273.32"/><polygon class="cls-19" points="45.42 268.06 42.84 265.55 44.81 261.96 45.42 268.06"/><polygon class="cls-20" points="45.42 268.06 42.84 265.55 47.62 272.02 45.42 268.06"/><polygon class="cls-21" points="62.37 246.7 56.2 246.7 69.53 255.62 62.37 246.7"/><polygon class="cls-22" points="62.37 246.7 66.95 242.53 69.53 255.62 62.37 246.7"/><polygon class="cls-23" points="78.98 250.4 66.95 242.53 69.53 255.62 78.98 250.4"/><polygon class="cls-24" points="78.98 250.4 66.95 242.53 73.53 240.24 78.98 250.4"/><polygon class="cls-4" points="78.98 250.4 78.98 241.13 73.53 240.24 78.98 250.4"/><polygon class="cls-25" points="78.98 250.4 78.98 241.13 83.59 244.02 78.98 250.4"/><polygon class="cls-26" points="78.98 250.4 86.98 248.31 83.59 244.02 78.98 250.4"/><polygon class="cls-27" points="78.98 250.4 86.98 248.31 88.47 252 78.98 250.4"/><polygon class="cls-28" points="78.98 250.4 78.98 259.82 69.53 255.62 78.98 250.4"/><polygon class="cls-6" points="78.98 250.4 78.98 259.82 88.47 252 78.98 250.4"/><polygon class="cls-29" points="92.56 254.19 78.98 259.82 88.47 252 92.56 254.19"/><polygon class="cls-3" points="92.56 254.19 78.98 259.82 95.55 258.77 92.56 254.19"/><polygon class="cls-30" points="95.95 264.1 78.98 259.82 95.55 258.77 95.95 264.1"/><polygon class="cls-31" points="95.95 264.1 78.98 259.82 94.45 268.54 95.95 264.1"/><polygon class="cls-7" points="90.47 272.02 78.98 259.82 94.45 268.54 90.47 272.02"/><polygon class="cls-31" points="90.47 272.02 78.98 259.82 84.79 273.32 90.47 272.02"/><polygon class="cls-32" points="77.71 273.32 78.98 259.82 84.79 273.32 77.71 273.32"/><polygon class="cls-8" points="77.71 273.32 78.98 259.82 69.94 273.32 77.71 273.32"/><polygon class="cls-33" points="61.9 264.1 78.98 259.82 69.53 255.62 61.9 264.1"/><polygon class="cls-34" points="61.9 264.1 78.98 259.82 69.94 273.32 61.9 264.1"/><path class="cls-35" d="M66.53,300.81v7.67h-.76v-3.59H61.22v3.59h-.74v-7.67h.74v3.41h4.55v-3.41Z"/><path class="cls-35" d="M67.83,306.87c0-1.05,1-1.73,2.38-1.73a4.84,4.84,0,0,1,1.65.29v-.5a1.49,1.49,0,0,0-1.58-1.62,3.15,3.15,0,0,0-1.81.67l-.26-.49a3.75,3.75,0,0,1,2.15-.74A2.08,2.08,0,0,1,72.6,305v2.54c0,.21.07.3.26.3v.65l-.3,0A.55.55,0,0,1,72,308l0-.44a2.8,2.8,0,0,1-2.18,1A1.8,1.8,0,0,1,67.83,306.87Zm3.85.37a.77.77,0,0,0,.18-.42v-.92a4.29,4.29,0,0,0-1.54-.29c-1,0-1.77.45-1.77,1.2A1.27,1.27,0,0,0,70,308,2.28,2.28,0,0,0,71.68,307.24Z"/><path class="cls-35" d="M74.19,301.67v-1.08h.74v1.08Zm0,6.81v-5.63h.74v5.63Z"/><path class="cls-35" d="M76.54,300.59h.73v6.62a.61.61,0,0,0,.66.67,1.82,1.82,0,0,0,.58-.12l.13.59a3.17,3.17,0,0,1-1,.19,1,1,0,0,1-1.09-1.09Z"/><polygon class="cls-45" points="56.16 290.98 59.91 284.49 63.65 290.98 56.16 290.98"/><polygon class="cls-46" points="63.65 290.98 59.91 284.49 67.4 284.49 63.65 290.98"/><polygon class="cls-47" points="67.4 284.49 59.91 284.49 63.65 278 67.4 284.49"/><polygon class="cls-45" points="63.65 278 59.91 284.49 56.16 278 63.65 278"/><polygon class="cls-48" points="56.16 278 59.91 284.49 52.41 284.49 56.16 278"/><polygon class="cls-49" points="52.41 284.49 59.91 284.49 56.16 290.98 52.41 284.49"/><polygon class="cls-45" points="73.59 290.98 77.34 284.49 81.08 290.98 73.59 290.98"/><polygon class="cls-46" points="81.08 290.98 77.34 284.49 84.83 284.49 81.08 290.98"/><polygon class="cls-47" points="84.83 284.49 77.34 284.49 81.08 278 84.83 284.49"/><polygon class="cls-45" points="81.08 278 77.34 284.49 73.59 278 81.08 278"/><polygon class="cls-48" points="73.59 278 77.34 284.49 69.84 284.49 73.59 278"/><polygon class="cls-49" points="69.84 284.49 77.34 284.49 73.59 290.98 69.84 284.49"/></svg>