<svg id="Layer_1" data-name="Layer 1" xmlns="http://www.w3.org/2000/svg" xmlns:xlink="http://www.w3.org/1999/xlink" viewBox="0 0 450 450"><defs><style>.cls-1{fill:url(#radial-gradient);}.cls-2{fill:#91f0ff;}.cls-3{fill:#0ba5f4;}.cls-4{fill:#29bbf1;}.cls-5{fill:#68f3fb;}.cls-6{fill:#84cde0;}.cls-7{fill:#6bb6ef;}.cls-8{fill:#2145a2;}.cls-9{fill:#4170ce;}.cls-10{fill:#5380c9;}.cls-11{fill:#4165a3;}.cls-12{fill:#175ab2;}.cls-13{fill:#0951b2;}.cls-14{fill:#6191d6;}.cls-15{fill:#6076df;}.cls-16{fill:#85e8fb;}.cls-17{fill:#7ce1f2;}.cls-18{fill:#4bd4f7;}.cls-19{fill:#70e1fd;}.cls-20{fill:#69cafb;}.cls-21{fill:#54a9ef;}.cls-22{fill:#42a3e6;}.cls-23{fill:#1f73ca;}.cls-24{fill:#0da4f4;}.cls-25{fill:#0b8eed;}.cls-26{fill:#0b68d4;}.cls-27{fill:#0863b4;}.cls-28{fill:#042d9f;}.cls-29{fill:#032f87;}.cls-30{fill:#02237d;}.cls-31{fill:#03408d;}.cls-32{fill:#022e90;}.cls-33{fill:#0876dd;}.cls-34{fill:#0539b3;}.cls-35{fill:#4d4d4d;}.cls-36{fill:#ffe91f;}.cls-37{fill:#ffe985;}.cls-38{fill:#ffce29;}.cls-39{fill:#ff9b43;}.cls-40{fill:#f78851;}.cls-41{fill:#e55f06;}.cls-42{fill:#fe6c05;}.cls-43{fill:#ff8629;}.cls-44{fill:#ffa31e;}.cls-45{fill:#fa960a;}.cls-46{fill:#fff;}.cls-47{fill:#54baaf;}.cls-48{fill:#4cad8e;}.cls-49{fill:#66c4c6;}.cls-50{fill:#6eb9bc;}.cls-51{fill:#36b28d;}.cls-52{fill:#3179a9;}.cls-53{fill:#202d7c;}.cls-54{fill:#19619c;}.cls-55{fill:#31b2a0;}.cls-56{fill:#299485;}.cls-57{fill:#0fc2a9;}.cls-58{fill:#38ccb7;}.cls-59{fill:#35bfac;}</style><radialGradient id="radial-gradient" cx="225" cy="225" r="321" gradientUnits="userSpaceOnUse"><stop offset="0.71" stop-color="#fff"/><stop offset="1" stop-color="#dedede"/></radialGradient></defs><rect class="cls-1" width="450" height="450"/><polygon class="cls-2" points="150 149.29 151.35 146.6 154.19 145.19 167.52 154.11 150 149.29"/><polygon class="cls-3" points="150 149.29 159.9 162.58 167.52 154.11 150 149.29"/><polygon class="cls-4" points="150 149.29 159.9 162.58 142.81 160.45 150 149.29"/><polygon class="cls-5" points="150 149.29 143.62 153.6 142.81 160.45 150 149.29"/><polygon class="cls-6" points="140.83 158.35 143.62 153.6 142.81 160.45 140.83 158.35"/><polygon class="cls-7" points="140.83 158.35 140.83 164.04 142.81 160.45 140.83 158.35"/><polygon class="cls-8" points="143.42 166.55 159.9 162.58 142.81 160.45 143.42 166.55"/><polygon class="cls-9" points="143.42 166.55 159.9 162.58 142.81 160.45 143.42 166.55"/><polygon class="cls-10" points="143.42 166.55 159.9 162.58 145.62 170.51 143.42 166.55"/><polygon class="cls-11" points="150.6 171.81 159.9 162.58 145.62 170.51 150.6 171.81"/><polygon class="cls-12" points="150.6 171.81 159.9 162.58 159.9 171.81 150.6 171.81"/><polygon class="cls-13" points="167.94 171.81 159.9 162.58 159.9 171.81 167.94 171.81"/><polygon class="cls-14" points="143.42 166.55 140.83 164.04 142.81 160.45 143.42 166.55"/><polygon class="cls-15" points="143.42 166.55 140.83 164.04 145.62 170.51 143.42 166.55"/><polygon class="cls-16" points="160.36 145.19 154.19 145.19 167.52 154.11 160.36 145.19"/><polygon class="cls-17" points="160.36 145.19 164.95 141.02 167.52 154.11 160.36 145.19"/><polygon class="cls-18" points="176.98 148.89 164.95 141.02 167.52 154.11 176.98 148.89"/><polygon class="cls-19" points="176.98 148.89 164.95 141.02 171.53 138.72 176.98 148.89"/><polygon class="cls-20" points="176.98 148.89 176.98 139.62 171.53 138.72 176.98 148.89"/><polygon class="cls-21" points="176.98 148.89 176.98 139.62 181.59 142.51 176.98 148.89"/><polygon class="cls-22" points="176.98 148.89 184.98 146.8 181.59 142.51 176.98 148.89"/><polygon class="cls-23" points="176.98 148.89 184.98 146.8 186.47 150.48 176.98 148.89"/><polygon class="cls-24" points="176.98 148.89 176.98 158.31 167.52 154.11 176.98 148.89"/><polygon class="cls-25" points="176.98 148.89 176.98 158.31 186.47 150.48 176.98 148.89"/><polygon class="cls-26" points="190.56 152.68 176.98 158.31 186.47 150.48 190.56 152.68"/><polygon class="cls-27" points="190.56 152.68 176.98 158.31 193.55 157.26 190.56 152.68"/><polygon class="cls-28" points="193.95 162.58 176.98 158.31 193.55 157.26 193.95 162.58"/><polygon class="cls-29" points="193.95 162.58 176.98 158.31 192.45 167.03 193.95 162.58"/><polygon class="cls-30" points="188.47 170.51 176.98 158.31 192.45 167.03 188.47 170.51"/><polygon class="cls-29" points="188.47 170.51 176.98 158.31 182.79 171.81 188.47 170.51"/><polygon class="cls-31" points="175.71 171.81 176.98 158.31 182.79 171.81 175.71 171.81"/><polygon class="cls-32" points="175.71 171.81 176.98 158.31 167.94 171.81 175.71 171.81"/><polygon class="cls-33" points="159.9 162.58 176.98 158.31 167.52 154.11 159.9 162.58"/><polygon class="cls-34" points="159.9 162.58 176.98 158.31 167.94 171.81 159.9 162.58"/><polygon class="cls-25" points="176.92 179.63 172.52 180.01 170.47 180.19 168.35 184.04 169.5 183.95 169.49 183.96 175.94 180.79 176.92 179.63"/><polygon class="cls-27" points="174.2 182.86 175.94 180.79 169.49 183.96 168.44 185.93 171.36 186.22 174.2 182.86"/><polygon class="cls-30" points="164.51 193.36 165 193.8 167.87 190.36 165.77 190.98 164.51 193.36"/><polygon class="cls-30" points="163.06 196.11 165 193.8 164.51 193.36 163.06 196.11"/><polygon class="cls-32" points="168.44 185.93 167.87 187 169.1 188.9 171.36 186.22 168.44 185.93"/><polygon class="cls-27" points="167.1 188.45 165.77 190.98 167.87 190.36 168.62 189.47 169.1 188.9 167.87 187 167.1 188.45"/><polygon class="cls-4" points="168.77 180.33 165.54 180.61 165.46 180.55 160.2 182.34 159.39 183.67 162.16 184.5 168.77 180.33"/><polygon class="cls-4" points="162 184.59 162.25 184.57 162.37 184.56 162.16 184.5 162 184.59"/><polygon class="cls-3" points="165.61 180.5 167.14 177.99 163.09 177.6 162.61 178.39 165.46 180.55 165.61 180.5"/><polygon class="cls-5" points="162.61 178.39 160.53 181.79 160.2 182.34 165.46 180.55 162.61 178.39"/><polygon class="cls-6" points="159.39 183.67 158.65 184.88 162 184.59 162.16 184.5 159.39 183.67"/><polygon class="cls-4" points="170.02 173.26 165.81 173.26 167.51 177.38 170.02 173.26"/><polygon class="cls-20" points="167.51 177.38 165.81 173.26 165.73 173.26 163.09 177.6 167.14 177.99 167.51 177.38"/><polygon class="cls-9" points="168.77 180.33 162.16 184.5 162.37 184.56 168.35 184.04 170.47 180.19 168.77 180.33"/><polygon class="cls-4" points="165.54 180.61 165.61 180.5 165.46 180.55 165.54 180.61"/><polygon class="cls-2" points="261.52 149.29 262.87 146.6 265.71 145.19 279.04 154.11 261.52 149.29"/><polygon class="cls-3" points="261.52 149.29 271.41 162.58 279.04 154.11 261.52 149.29"/><polygon class="cls-4" points="261.52 149.29 271.41 162.58 254.32 160.45 261.52 149.29"/><polygon class="cls-5" points="261.52 149.29 255.14 153.6 254.32 160.45 261.52 149.29"/><polygon class="cls-6" points="252.35 158.35 255.14 153.6 254.32 160.45 252.35 158.35"/><polygon class="cls-7" points="252.35 158.35 252.35 164.04 254.32 160.45 252.35 158.35"/><polygon class="cls-8" points="254.94 166.55 271.41 162.58 254.32 160.45 254.94 166.55"/><polygon class="cls-9" points="254.94 166.55 271.41 162.58 254.32 160.45 254.94 166.55"/><polygon class="cls-10" points="254.94 166.55 271.41 162.58 257.13 170.51 254.94 166.55"/><polygon class="cls-11" points="262.12 171.81 271.41 162.58 257.13 170.51 262.12 171.81"/><polygon class="cls-12" points="262.12 171.81 271.41 162.58 271.41 171.81 262.12 171.81"/><polygon class="cls-13" points="279.45 171.81 271.41 162.58 271.41 171.81 279.45 171.81"/><polygon class="cls-14" points="254.94 166.55 252.35 164.04 254.32 160.45 254.94 166.55"/><polygon class="cls-15" points="254.94 166.55 252.35 164.04 257.13 170.51 254.94 166.55"/><polygon class="cls-16" points="271.88 145.19 265.71 145.19 279.04 154.11 271.88 145.19"/><polygon class="cls-17" points="271.88 145.19 276.46 141.02 279.04 154.11 271.88 145.19"/><polygon class="cls-18" points="288.5 148.89 276.46 141.02 279.04 154.11 288.5 148.89"/><polygon class="cls-19" points="288.5 148.89 276.46 141.02 283.04 138.72 288.5 148.89"/><polygon class="cls-20" points="288.5 148.89 288.5 139.62 283.04 138.72 288.5 148.89"/><polygon class="cls-21" points="288.5 148.89 288.5 139.62 293.11 142.51 288.5 148.89"/><polygon class="cls-22" points="288.5 148.89 296.49 146.8 293.11 142.51 288.5 148.89"/><polygon class="cls-23" points="288.5 148.89 296.49 146.8 297.99 150.48 288.5 148.89"/><polygon class="cls-24" points="288.5 148.89 288.5 158.31 279.04 154.11 288.5 148.89"/><polygon class="cls-25" points="288.5 148.89 288.5 158.31 297.99 150.48 288.5 148.89"/><polygon class="cls-26" points="302.08 152.68 288.5 158.31 297.99 150.48 302.08 152.68"/><polygon class="cls-27" points="302.08 152.68 288.5 158.31 305.06 157.26 302.08 152.68"/><polygon class="cls-28" points="305.46 162.58 288.5 158.31 305.06 157.26 305.46 162.58"/><polygon class="cls-29" points="305.46 162.58 288.5 158.31 303.97 167.03 305.46 162.58"/><polygon class="cls-30" points="299.98 170.51 288.5 158.31 303.97 167.03 299.98 170.51"/><polygon class="cls-29" points="299.98 170.51 288.5 158.31 294.3 171.81 299.98 170.51"/><polygon class="cls-31" points="287.23 171.81 288.5 158.31 294.3 171.81 287.23 171.81"/><polygon class="cls-32" points="287.23 171.81 288.5 158.31 279.45 171.81 287.23 171.81"/><polygon class="cls-33" points="271.41 162.58 288.5 158.31 279.04 154.11 271.41 162.58"/><polygon class="cls-34" points="271.41 162.58 288.5 158.31 279.45 171.81 271.41 162.58"/><polygon class="cls-5" points="279.04 178.84 275.88 177.99 275.79 178.21 273.27 183.8 279.04 185.08 279.04 178.84"/><polygon class="cls-27" points="279.04 194.12 279.04 191.53 275.81 193.12 279.04 194.12"/><polygon class="cls-20" points="279.04 172.9 275.88 177.99 279.04 178.84 279.04 172.9"/><polygon class="cls-27" points="273.24 189.06 273.24 189.08 275.79 193.11 275.81 193.12 279.04 191.53 279.04 188.03 273.24 189.06"/><polygon class="cls-4" points="279.04 185.08 273.27 183.8 273.24 183.85 273.24 189.06 279.04 188.03 279.04 185.08"/><polygon class="cls-25" points="279.04 178.84 282.2 177.99 282.29 178.21 284.82 183.8 279.04 185.08 279.04 178.84"/><polygon class="cls-30" points="279.04 194.12 279.04 191.53 282.28 193.12 279.04 194.12"/><polygon class="cls-4" points="279.04 172.9 282.2 177.99 279.04 178.84 279.04 172.9"/><polygon class="cls-32" points="284.84 189.06 284.84 189.08 282.29 193.11 282.28 193.12 279.04 191.53 279.04 188.03 284.84 189.06"/><polygon class="cls-27" points="279.04 185.08 284.82 183.8 284.84 183.85 284.84 189.06 279.04 188.03 279.04 185.08"/><path class="cls-35" d="M269.13,211.79v-7.67h3.23a2.39,2.39,0,0,1,2.28,2.41,2.26,2.26,0,0,1-1.72,2.3l1.89,3H274L272.14,209h-2.27v2.83Zm.74-3.5h2.52a1.62,1.62,0,0,0,1.49-1.76,1.68,1.68,0,0,0-1.55-1.74h-2.46Z"/><path class="cls-35" d="M275.52,210.18c0-1,1-1.73,2.38-1.73a4.61,4.61,0,0,1,1.65.3v-.51a1.49,1.49,0,0,0-1.58-1.62,3.19,3.19,0,0,0-1.81.67l-.26-.49a3.78,3.78,0,0,1,2.15-.73,2.08,2.08,0,0,1,2.24,2.23v2.54c0,.21.07.3.25.3v.65l-.29,0a.55.55,0,0,1-.59-.51l0-.45a2.8,2.8,0,0,1-2.18,1.05A1.8,1.8,0,0,1,275.52,210.18Zm3.85.37a.85.85,0,0,0,.18-.42v-.92a4.61,4.61,0,0,0-1.54-.29c-1.05,0-1.78.45-1.78,1.2a1.28,1.28,0,0,0,1.41,1.22A2.25,2.25,0,0,0,279.37,210.55Z"/><path class="cls-35" d="M281.88,205v-1.08h.74V205Zm0,6.8v-5.63h.74v5.63Z"/><path class="cls-35" d="M288.92,211.79h-.73v-3.14c0-1.33-.38-1.91-1.2-1.91a2.28,2.28,0,0,0-2.06,1.61v3.44h-.74v-5.63h.67v1.28a2.78,2.78,0,0,1,2.39-1.37c1.26,0,1.67,1,1.67,2.43Z"/><polygon class="cls-36" points="360.41 343.62 371.93 342.1 366.25 347.55 360.41 343.62"/><polygon class="cls-37" points="381.09 343.91 371.93 342.1 366.25 347.55 381.09 343.91"/><polygon class="cls-38" points="381.09 343.91 386.71 349.47 366.25 347.55 381.09 343.91"/><polygon class="cls-39" points="371.93 351.62 386.71 349.47 366.25 347.55 371.93 351.62"/><polygon class="cls-40" points="371.93 351.62 386.71 349.47 374.55 358.69 371.93 351.62"/><polygon class="cls-39" points="392.35 357.58 386.71 349.47 374.55 358.69 392.35 357.58"/><polygon class="cls-41" points="392.35 357.58 393.03 365.28 374.55 358.69 392.35 357.58"/><polygon class="cls-42" points="376.48 365.28 393.03 365.28 374.55 358.69 376.48 365.28"/><polygon class="cls-43" points="376.48 365.28 393.03 365.28 392.35 372.89 376.48 365.28"/><polygon class="cls-44" points="376.48 365.28 389.04 379.79 392.35 372.89 376.48 365.28"/><polygon class="cls-45" points="376.48 365.28 389.04 379.79 374.7 372.89 376.48 365.28"/><polygon class="cls-40" points="385.67 383.67 389.04 379.79 374.7 372.89 385.67 383.67"/><polygon class="cls-43" points="385.67 383.67 372.36 378.29 374.7 372.89 385.67 383.67"/><polygon class="cls-42" points="385.67 383.67 372.36 378.29 381.09 387.05 385.67 383.67"/><polygon class="cls-41" points="369.96 382.67 372.36 378.29 381.09 387.05 369.96 382.67"/><polygon class="cls-42" points="369.96 382.67 376.48 389.05 381.09 387.05 369.96 382.67"/><polygon class="cls-39" points="369.96 382.67 376.48 389.05 366.67 384.85 369.96 382.67"/><polygon class="cls-41" points="370.18 390.16 376.48 389.05 366.67 384.85 370.18 390.16"/><polygon class="cls-41" points="370.18 390.16 365.35 390.16 366.67 384.85 370.18 390.16"/><polygon class="cls-42" points="360.41 388.49 365.35 390.16 366.67 384.85 360.41 388.49"/><path class="cls-35" d="M362.42,404.1v6.27h-.74V402.7h.58l5.08,6.38v-6.37h.74v7.66h-.65Z"/><path class="cls-35" d="M369.84,403.56v-1.08h.74v1.08Zm0,6.81v-5.63h.74v5.63Z"/><path class="cls-35" d="M371.79,407.57a2.75,2.75,0,0,1,2.62-2.93,2.6,2.6,0,0,1,2.16,1.28v-1.18h.66v5.65c0,1.57-1.25,2.39-2.77,2.39A2.69,2.69,0,0,1,372,411.5l.45-.36a2.33,2.33,0,0,0,2.06,1.05,1.81,1.81,0,0,0,2-1.8v-1.11a2.48,2.48,0,0,1-2.06,1.16A2.77,2.77,0,0,1,371.79,407.57Zm4.7.86v-1.74a2.21,2.21,0,0,0-1.95-1.4,2.16,2.16,0,0,0-2,2.29,2.19,2.19,0,0,0,2.1,2.25A2,2,0,0,0,376.49,408.43Z"/><path class="cls-35" d="M383.54,410.37h-.74v-3.15c0-1.27-.45-1.91-1.3-1.91a2.2,2.2,0,0,0-2,1.61v3.45h-.74v-7.89h.74V406a2.55,2.55,0,0,1,2.21-1.37c1.3,0,1.79,1,1.79,2.43Z"/><path class="cls-35" d="M387.74,410.1a3.19,3.19,0,0,1-1.28.33,1.07,1.07,0,0,1-1.19-1.08v-4h-.77v-.58h.77v-1.9H386v1.9h1.29v.58H386v3.83a.62.62,0,0,0,.68.6,1.66,1.66,0,0,0,.85-.25Z"/><polygon class="cls-2" points="247.45 51.6 249.47 47.57 253.74 45.46 273.74 58.84 247.45 51.6"/><polygon class="cls-3" points="247.45 51.6 262.3 71.56 273.74 58.84 247.45 51.6"/><polygon class="cls-4" points="247.45 51.6 262.3 71.56 236.65 68.35 247.45 51.6"/><polygon class="cls-5" points="247.45 51.6 237.88 58.08 236.65 68.35 247.45 51.6"/><polygon class="cls-6" points="233.69 65.2 237.88 58.08 236.65 68.35 233.69 65.2"/><polygon class="cls-7" points="233.69 65.2 233.69 73.73 236.65 68.35 233.69 65.2"/><polygon class="cls-8" points="237.57 77.51 262.3 71.56 236.65 68.35 237.57 77.51"/><polygon class="cls-9" points="237.57 77.51 262.3 71.56 236.65 68.35 237.57 77.51"/><polygon class="cls-10" points="237.57 77.51 262.3 71.56 240.87 83.45 237.57 77.51"/><polygon class="cls-11" points="248.34 85.4 262.3 71.56 240.87 83.45 248.34 85.4"/><polygon class="cls-12" points="248.34 85.4 262.3 71.56 262.3 85.4 248.34 85.4"/><polygon class="cls-13" points="274.36 85.4 262.3 71.56 262.3 85.4 274.36 85.4"/><polygon class="cls-14" points="237.57 77.51 233.69 73.73 236.65 68.35 237.57 77.51"/><polygon class="cls-15" points="237.57 77.51 233.69 73.73 240.87 83.45 237.57 77.51"/><polygon class="cls-16" points="263 45.46 253.74 45.46 273.74 58.84 263 45.46"/><polygon class="cls-17" points="263 45.46 269.88 39.19 273.74 58.84 263 45.46"/><polygon class="cls-18" points="287.94 51.01 269.88 39.19 273.74 58.84 287.94 51.01"/><polygon class="cls-19" points="287.94 51.01 269.88 39.19 279.75 35.76 287.94 51.01"/><polygon class="cls-20" points="287.94 51.01 287.94 37.1 279.75 35.76 287.94 51.01"/><polygon class="cls-21" points="287.94 51.01 287.94 37.1 294.85 41.44 287.94 51.01"/><polygon class="cls-22" points="287.94 51.01 299.93 47.87 294.85 41.44 287.94 51.01"/><polygon class="cls-23" points="287.94 51.01 299.93 47.87 302.17 53.4 287.94 51.01"/><polygon class="cls-24" points="287.94 51.01 287.94 65.15 273.74 58.84 287.94 51.01"/><polygon class="cls-25" points="287.94 51.01 287.94 65.15 302.17 53.4 287.94 51.01"/><polygon class="cls-26" points="308.31 56.69 287.94 65.15 302.17 53.4 308.31 56.69"/><polygon class="cls-27" points="308.31 56.69 287.94 65.15 312.79 63.57 308.31 56.69"/><polygon class="cls-28" points="313.39 71.56 287.94 65.15 312.79 63.57 313.39 71.56"/><polygon class="cls-29" points="313.39 71.56 287.94 65.15 311.15 78.22 313.39 71.56"/><polygon class="cls-30" points="305.17 83.45 287.94 65.15 311.15 78.22 305.17 83.45"/><polygon class="cls-29" points="305.17 83.45 287.94 65.15 296.64 85.4 305.17 83.45"/><polygon class="cls-31" points="286.02 85.4 287.94 65.15 296.64 85.4 286.02 85.4"/><polygon class="cls-32" points="286.02 85.4 287.94 65.15 274.36 85.4 286.02 85.4"/><polygon class="cls-33" points="262.3 71.56 287.94 65.15 273.74 58.84 262.3 71.56"/><polygon class="cls-34" points="262.3 71.56 287.94 65.15 274.36 85.4 262.3 71.56"/><path class="cls-35" d="M262.73,100a3,3,0,0,1,2.83,1.68l-.6.36a2.43,2.43,0,0,0-2.27-1.36,3,3,0,0,0-2.84,3.19,3.09,3.09,0,0,0,2.87,3.23,2.63,2.63,0,0,0,2.37-1.43l.62.33a3.35,3.35,0,0,1-3,1.78,3.85,3.85,0,0,1-3.59-4A3.71,3.71,0,0,1,262.73,100Z"/><path class="cls-35" d="M266.88,99.82h.73v6.61a.61.61,0,0,0,.66.67,1.58,1.58,0,0,0,.58-.12l.13.6a3.17,3.17,0,0,1-1,.19,1,1,0,0,1-1.09-1.09Z"/><path class="cls-35" d="M269.32,104.91a2.8,2.8,0,1,1,5.59,0,2.8,2.8,0,1,1-5.59,0Zm2.79,2.26a2.28,2.28,0,1,0-2-2.25A2.15,2.15,0,0,0,272.11,107.17Z"/><path class="cls-35" d="M276.06,105.38v-3.3h.73v3.17c0,1.29.43,1.92,1.31,1.92a2.23,2.23,0,0,0,2-1.55v-3.54h.73v4.68q0,.3.27.3v.65l-.3,0a.56.56,0,0,1-.6-.53v-.78a2.71,2.71,0,0,1-2.38,1.38C276.67,107.81,276.06,107,276.06,105.38Z"/><path class="cls-35" d="M282.16,104.91a2.74,2.74,0,0,1,2.57-2.93,2.53,2.53,0,0,1,2.14,1.28V99.82h.73v6.94c0,.2.08.3.26.3v.65l-.29,0a.57.57,0,0,1-.61-.53v-.59a2.54,2.54,0,0,1-2.1,1.19A2.81,2.81,0,0,1,282.16,104.91Zm4.71.86V104a2.29,2.29,0,0,0-1.95-1.4,2.14,2.14,0,0,0-2,2.28,2.18,2.18,0,0,0,2.09,2.26A2,2,0,0,0,286.87,105.77Z"/><polygon class="cls-2" points="360.86 43.65 362.21 40.95 365.06 39.55 378.38 48.47 360.86 43.65"/><polygon class="cls-3" points="360.86 43.65 370.76 56.94 378.38 48.47 360.86 43.65"/><polygon class="cls-4" points="360.86 43.65 370.76 56.94 353.67 54.81 360.86 43.65"/><polygon class="cls-5" points="360.86 43.65 354.48 47.96 353.67 54.81 360.86 43.65"/><polygon class="cls-6" points="351.69 52.7 354.48 47.96 353.67 54.81 351.69 52.7"/><polygon class="cls-7" points="351.69 52.7 351.69 58.39 353.67 54.81 351.69 52.7"/><polygon class="cls-8" points="354.28 60.91 370.76 56.94 353.67 54.81 354.28 60.91"/><polygon class="cls-9" points="354.28 60.91 370.76 56.94 353.67 54.81 354.28 60.91"/><polygon class="cls-10" points="354.28 60.91 370.76 56.94 356.48 64.87 354.28 60.91"/><polygon class="cls-11" points="361.46 66.17 370.76 56.94 356.48 64.87 361.46 66.17"/><polygon class="cls-12" points="361.46 66.17 370.76 56.94 370.76 66.17 361.46 66.17"/><polygon class="cls-13" points="378.8 66.17 370.76 56.94 370.76 66.17 378.8 66.17"/><polygon class="cls-14" points="354.28 60.91 351.69 58.39 353.67 54.81 354.28 60.91"/><polygon class="cls-15" points="354.28 60.91 351.69 58.39 356.48 64.87 354.28 60.91"/><polygon class="cls-16" points="371.23 39.55 365.06 39.55 378.38 48.47 371.23 39.55"/><polygon class="cls-17" points="371.23 39.55 375.81 35.37 378.38 48.47 371.23 39.55"/><polygon class="cls-18" points="387.85 43.25 375.81 35.37 378.38 48.47 387.85 43.25"/><polygon class="cls-19" points="387.85 43.25 375.81 35.37 382.39 33.08 387.85 43.25"/><polygon class="cls-20" points="387.85 43.25 387.85 33.98 382.39 33.08 387.85 43.25"/><polygon class="cls-21" points="387.85 43.25 387.85 33.98 392.45 36.87 387.85 43.25"/><polygon class="cls-22" points="387.85 43.25 395.84 41.15 392.45 36.87 387.85 43.25"/><polygon class="cls-23" points="387.85 43.25 395.84 41.15 397.33 44.84 387.85 43.25"/><polygon class="cls-24" points="387.85 43.25 387.85 52.67 378.38 48.47 387.85 43.25"/><polygon class="cls-25" points="387.85 43.25 387.85 52.67 397.33 44.84 387.85 43.25"/><polygon class="cls-26" points="401.42 47.03 387.85 52.67 397.33 44.84 401.42 47.03"/><polygon class="cls-27" points="401.42 47.03 387.85 52.67 404.41 51.62 401.42 47.03"/><polygon class="cls-28" points="404.81 56.94 387.85 52.67 404.41 51.62 404.81 56.94"/><polygon class="cls-29" points="404.81 56.94 387.85 52.67 403.31 61.38 404.81 56.94"/><polygon class="cls-30" points="399.33 64.87 387.85 52.67 403.31 61.38 399.33 64.87"/><polygon class="cls-29" points="399.33 64.87 387.85 52.67 393.65 66.17 399.33 64.87"/><polygon class="cls-31" points="386.57 66.17 387.85 52.67 393.65 66.17 386.57 66.17"/><polygon class="cls-32" points="386.57 66.17 387.85 52.67 378.8 66.17 386.57 66.17"/><polygon class="cls-33" points="370.76 56.94 387.85 52.67 378.38 48.47 370.76 56.94"/><polygon class="cls-34" points="370.76 56.94 387.85 52.67 378.8 66.17 370.76 56.94"/><polygon class="cls-22" points="382.14 78.72 380.91 77.59 380.48 77.83 380.73 79.54 382.14 78.72"/><polygon class="cls-4" points="384.85 73.02 383.31 72.6 382.54 75.47 384.41 74.66 384.85 73.02"/><polygon class="cls-2" points="387.23 79.39 387.64 77.84 386.5 77.54 385.93 79.04 387.23 79.39"/><polygon class="cls-18" points="382.97 78.25 383.65 78.43 384.65 75.43 384.13 75.73 384.41 74.66 382.54 75.47 382.17 76.86 380.91 77.59 382.14 78.72 382.97 78.25"/><polygon class="cls-4" points="385.93 79.04 386.5 77.54 384.93 77.11 386.51 76.2 385.71 74.81 384.65 75.43 383.65 78.43 385.93 79.04"/><polygon class="cls-24" points="380.73 79.54 380.48 77.83 378.15 79.18 379.46 80.27 380.73 79.54"/><path class="cls-25" d="M370,80.68c.11.59.2,1.24.27,1.73l1,.25,2.57-1Z"/><path class="cls-29" d="M369.54,80.55l-.42,1.54,1.16.32c-.07-.49-.16-1.14-.27-1.73Z"/><path class="cls-24" d="M371.23,82.66l.61.16-.44.25,3.11.33.09-.32,1.13-.66c0-.54.13-1.25.2-2l-2.13,1.23Z"/><path class="cls-12" d="M379.46,80.27l-1.31-1.09-2.22,1.28c-.07.71-.15,1.42-.2,2Z"/><polygon class="cls-4" points="371.91 86.92 373.44 87.33 372.64 84.21 371.91 86.92"/><polygon class="cls-33" points="370.14 83.81 370.94 85.19 372.64 84.21 374.34 84.04 374.51 83.39 371.4 83.08 370.14 83.81"/><polygon class="cls-16" points="373.44 87.33 373.46 87.34 374.34 84.04 372.64 84.21 373.44 87.33"/><polygon class="cls-22" points="377.67 83.72 379.26 83.21 379.26 82.72 377.67 82.08 377.67 83.72"/><polygon class="cls-4" points="381.25 88.92 382.38 87.79 380.29 85.69 380.05 87.72 381.25 88.92"/><polygon class="cls-2" points="374.55 87.79 375.68 88.92 376.51 88.08 375.49 86.84 374.55 87.79"/><polygon class="cls-18" points="377.67 84.67 377.17 85.17 379.26 87.54 379.26 86.93 380.05 87.72 380.29 85.69 379.26 84.67 379.26 83.21 377.67 83.72 377.67 84.67"/><polygon class="cls-4" points="375.49 86.84 376.51 88.08 377.67 86.93 377.67 88.76 379.26 88.76 379.26 87.54 377.17 85.17 375.49 86.84"/><polygon class="cls-24" points="377.67 82.08 379.26 82.72 379.26 80.03 377.67 80.62 377.67 82.08"/><path class="cls-25" d="M382,72.23c-.57-.2-1.18-.44-1.64-.62l-.69.69L379.26,75Z"/><path class="cls-29" d="M382.38,71.89l-1.13-1.13-.85.85c.46.18,1.07.42,1.64.62Z"/><path class="cls-24" d="M379.71,72.3l-.45.45v-.51l-1.83,2.53.24.24v1.31l1.59,1.14V75Z"/><path class="cls-12" d="M377.67,80.62l1.59-.59V77.46l-1.59-1.14Z"/><polygon class="cls-4" points="375.68 70.76 374.56 71.88 377.67 72.75 375.68 70.76"/><polygon class="cls-33" points="379.26 70.78 377.67 70.78 377.67 72.75 376.96 74.3 377.43 74.77 379.26 72.24 379.26 70.78"/><polygon class="cls-16" points="374.56 71.88 374.55 71.89 376.96 74.3 377.67 72.75 374.56 71.88"/><polygon class="cls-22" points="381.35 82.51 381.71 80.88 381.29 80.63 379.93 81.69 381.35 82.51"/><polygon class="cls-4" points="387.64 82.01 387.23 80.46 384.37 81.23 386 82.45 387.64 82.01"/><polygon class="cls-2" points="383.31 87.25 384.86 86.83 384.55 85.69 382.97 85.95 383.31 87.25"/><polygon class="cls-18" points="382.17 82.99 382.35 83.67 385.45 83.04 384.93 82.73 386 82.45 384.37 81.23 382.97 81.6 381.71 80.88 381.35 82.51 382.17 82.99"/><polygon class="cls-4" points="382.97 85.95 384.55 85.69 384.13 84.12 385.72 85.03 386.51 83.65 385.45 83.04 382.35 83.67 382.97 85.95"/><polygon class="cls-24" points="379.93 81.69 381.29 80.63 378.95 79.28 378.67 80.96 379.93 81.69"/><path class="cls-25" d="M373.59,73l-1.36,1.09.25,1,2.12,1.74Z"/><path class="cls-29" d="M373.46,72.51l-1.54.42.31,1.15L373.59,73Z"/><path class="cls-24" d="M372.48,75l.16.61-.43-.25,1.27,2.85.32-.08,1.14.65,1.79-.81-2.13-1.23Z"/><path class="cls-12" d="M378.67,81l.28-1.68L376.73,78l-1.79.81Z"/><polygon class="cls-4" points="369.13 77.75 369.54 79.28 371.84 77.03 369.13 77.75"/><polygon class="cls-33" points="370.94 74.66 370.14 76.04 371.84 77.03 372.84 78.42 373.48 78.24 372.21 75.39 370.94 74.66"/><polygon class="cls-16" points="369.54 79.28 369.54 79.3 372.84 78.42 371.84 77.03 369.54 79.28"/><polygon class="cls-22" points="397.4 72.55 396.82 72.02 396.62 72.13 396.74 72.93 397.4 72.55"/><polygon class="cls-4" points="398.66 69.89 397.94 69.69 397.58 71.03 398.45 70.65 398.66 69.89"/><polygon class="cls-2" points="399.77 72.86 399.96 72.14 399.43 71.99 399.16 72.69 399.77 72.86"/><polygon class="cls-18" points="397.78 72.33 398.1 72.41 398.57 71.01 398.32 71.15 398.45 70.65 397.58 71.03 397.41 71.68 396.82 72.02 397.4 72.55 397.78 72.33"/><polygon class="cls-4" points="399.16 72.69 399.43 71.99 398.69 71.8 399.43 71.37 399.06 70.72 398.57 71.01 398.1 72.41 399.16 72.69"/><polygon class="cls-24" points="396.74 72.93 396.62 72.13 395.54 72.76 396.15 73.27 396.74 72.93"/><path class="cls-25" d="M391.74,73.46c.05.28.1.58.13.8l.44.12,1.2-.45Z"/><path class="cls-29" d="M391.52,73.4l-.19.72.54.14c0-.22-.08-.52-.13-.8Z"/><path class="cls-24" d="M392.31,74.38l.29.08-.21.12,1.45.14,0-.14.53-.31c0-.25.06-.58.09-.91l-1,.57Z"/><path class="cls-12" d="M396.15,73.27l-.61-.51-1,.6c0,.33-.07.66-.09.91Z"/><polygon class="cls-4" points="392.63 76.37 393.34 76.56 392.97 75.1 392.63 76.37"/><polygon class="cls-33" points="391.8 74.92 392.18 75.56 392.97 75.1 393.76 75.03 393.84 74.72 392.39 74.58 391.8 74.92"/><polygon class="cls-16" points="393.34 76.56 393.35 76.56 393.76 75.03 392.97 75.1 393.34 76.56"/><polygon class="cls-22" points="395.31 74.87 396.06 74.64 396.06 74.41 395.31 74.11 395.31 74.87"/><polygon class="cls-4" points="396.98 77.3 397.51 76.77 396.53 75.79 396.42 76.74 396.98 77.3"/><polygon class="cls-2" points="393.86 76.77 394.38 77.3 394.77 76.91 394.3 76.33 393.86 76.77"/><polygon class="cls-18" points="395.31 75.32 395.08 75.55 396.06 76.66 396.06 76.37 396.42 76.74 396.53 75.79 396.06 75.32 396.06 74.64 395.31 74.87 395.31 75.32"/><polygon class="cls-4" points="394.3 76.33 394.77 76.91 395.31 76.37 395.31 77.23 396.06 77.23 396.06 76.66 395.08 75.55 394.3 76.33"/><polygon class="cls-24" points="395.31 74.11 396.06 74.41 396.06 73.15 395.31 73.43 395.31 74.11"/><path class="cls-25" d="M397.35,69.52c-.27-.09-.55-.21-.76-.29l-.33.32-.21,1.26Z"/><path class="cls-29" d="M397.51,69.36l-.53-.53-.39.4c.21.08.49.2.76.29Z"/><path class="cls-24" d="M396.26,69.55l-.21.21v-.23l-.85,1.18.11.1v.61l.74.54V70.81Z"/><path class="cls-12" d="M395.31,73.43l.74-.28V72l-.74-.54Z"/><polygon class="cls-4" points="394.38 68.83 393.86 69.36 395.31 69.76 394.38 68.83"/><polygon class="cls-33" points="396.06 68.84 395.31 68.84 395.31 69.76 394.98 70.49 395.2 70.71 396.06 69.53 396.06 68.84"/><polygon class="cls-16" points="393.86 69.36 393.86 69.36 394.98 70.49 395.31 69.76 393.86 69.36"/><polygon class="cls-22" points="397.02 74.31 397.19 73.55 397 73.44 396.37 73.93 397.02 74.31"/><polygon class="cls-4" points="399.96 74.08 399.77 73.36 398.43 73.72 399.19 74.28 399.96 74.08"/><polygon class="cls-2" points="397.94 76.52 398.66 76.33 398.52 75.79 397.78 75.92 397.94 76.52"/><polygon class="cls-18" points="397.41 74.53 397.5 74.85 398.94 74.56 398.69 74.42 399.19 74.28 398.43 73.72 397.78 73.89 397.19 73.55 397.02 74.31 397.41 74.53"/><polygon class="cls-4" points="397.78 75.92 398.52 75.79 398.32 75.06 399.06 75.49 399.44 74.84 398.94 74.56 397.5 74.85 397.78 75.92"/><polygon class="cls-24" points="396.37 73.93 397 73.44 395.91 72.81 395.78 73.59 396.37 73.93"/><path class="cls-25" d="M393.41,69.87l-.63.52.11.44,1,.81Z"/><path class="cls-29" d="M393.35,69.65l-.72.19.15.55.63-.52Z"/><path class="cls-24" d="M392.89,70.83l.08.28-.2-.12.59,1.33.15,0,.53.31.83-.38-1-.57Z"/><path class="cls-12" d="M395.78,73.59l.13-.78-1-.6-.83.38Z"/><polygon class="cls-4" points="391.33 72.1 391.52 72.81 392.6 71.76 391.33 72.1"/><polygon class="cls-33" points="392.18 70.65 391.81 71.3 392.6 71.76 393.06 72.4 393.36 72.32 392.77 70.99 392.18 70.65"/><polygon class="cls-16" points="391.52 72.81 391.52 72.81 393.06 72.4 392.6 71.76 391.52 72.81"/><polygon class="cls-22" points="361.65 74.25 361.07 73.72 360.88 73.84 360.99 74.63 361.65 74.25"/><polygon class="cls-4" points="362.91 71.59 362.19 71.4 361.83 72.73 362.71 72.36 362.91 71.59"/><polygon class="cls-2" points="364.02 74.56 364.21 73.84 363.68 73.7 363.42 74.4 364.02 74.56"/><polygon class="cls-18" points="362.03 74.03 362.35 74.12 362.82 72.72 362.57 72.86 362.71 72.36 361.83 72.73 361.66 73.39 361.07 73.72 361.65 74.25 362.03 74.03"/><polygon class="cls-4" points="363.42 74.4 363.68 73.7 362.94 73.5 363.69 73.08 363.31 72.43 362.82 72.72 362.35 74.12 363.42 74.4"/><polygon class="cls-24" points="360.99 74.63 360.88 73.84 359.79 74.47 360.4 74.97 360.99 74.63"/><path class="cls-25" d="M356,75.16c0,.28.09.59.12.81l.44.12,1.2-.45Z"/><path class="cls-29" d="M355.77,75.1l-.19.72.54.15c0-.22-.08-.53-.12-.81Z"/><path class="cls-24" d="M356.56,76.09l.29.07-.21.12,1.45.15,0-.15.53-.3c0-.26.06-.59.09-.92l-1,.58Z"/><path class="cls-12" d="M360.4,75l-.61-.5-1,.59c0,.33-.06.66-.09.92Z"/><polygon class="cls-4" points="356.88 78.08 357.59 78.27 357.22 76.81 356.88 78.08"/><polygon class="cls-33" points="356.05 76.62 356.43 77.27 357.22 76.81 358.01 76.73 358.09 76.43 356.64 76.28 356.05 76.62"/><polygon class="cls-16" points="357.59 78.27 357.6 78.27 358.01 76.73 357.22 76.81 357.59 78.27"/><polygon class="cls-22" points="359.56 76.58 360.31 76.35 360.31 76.12 359.56 75.82 359.56 76.58"/><polygon class="cls-4" points="361.23 79 361.76 78.48 360.78 77.5 360.67 78.44 361.23 79"/><polygon class="cls-2" points="358.11 78.48 358.63 79 359.02 78.61 358.55 78.04 358.11 78.48"/><polygon class="cls-18" points="359.56 77.03 359.33 77.26 360.31 78.36 360.31 78.08 360.67 78.44 360.78 77.5 360.31 77.03 360.31 76.35 359.56 76.58 359.56 77.03"/><polygon class="cls-4" points="358.55 78.04 359.02 78.61 359.56 78.08 359.56 78.93 360.31 78.93 360.31 78.36 359.33 77.26 358.55 78.04"/><polygon class="cls-24" points="359.56 75.82 360.31 76.12 360.31 74.86 359.56 75.14 359.56 75.82"/><path class="cls-25" d="M361.6,71.23l-.76-.29-.32.32-.21,1.26Z"/><path class="cls-29" d="M361.76,71.07l-.53-.53-.39.4.76.29Z"/><path class="cls-24" d="M360.52,71.26l-.21.21v-.24l-.86,1.18.11.11v.61l.75.54V72.52Z"/><path class="cls-12" d="M359.56,75.14l.75-.28V73.67l-.75-.54Z"/><polygon class="cls-4" points="358.63 70.54 358.11 71.06 359.56 71.47 358.63 70.54"/><polygon class="cls-33" points="360.31 70.55 359.56 70.55 359.56 71.47 359.23 72.19 359.45 72.41 360.31 71.23 360.31 70.55"/><polygon class="cls-16" points="358.11 71.06 358.11 71.07 359.23 72.19 359.56 71.47 358.11 71.06"/><polygon class="cls-22" points="361.28 76.02 361.45 75.26 361.25 75.14 360.62 75.64 361.28 76.02"/><polygon class="cls-4" points="364.21 75.78 364.02 75.06 362.69 75.42 363.45 75.99 364.21 75.78"/><polygon class="cls-2" points="362.19 78.23 362.91 78.03 362.77 77.5 362.03 77.62 362.19 78.23"/><polygon class="cls-18" points="361.66 76.24 361.75 76.56 363.19 76.26 362.95 76.12 363.45 75.99 362.69 75.42 362.03 75.6 361.45 75.26 361.28 76.02 361.66 76.24"/><polygon class="cls-4" points="362.03 77.62 362.77 77.5 362.57 76.77 363.31 77.19 363.69 76.55 363.19 76.26 361.75 76.56 362.03 77.62"/><polygon class="cls-24" points="360.62 75.64 361.25 75.14 360.16 74.51 360.03 75.3 360.62 75.64"/><path class="cls-25" d="M357.66,71.58l-.63.51.12.44,1,.81Z"/><path class="cls-29" d="M357.6,71.36l-.72.19.15.54.63-.51Z"/><path class="cls-24" d="M357.15,72.53l.07.29-.2-.12.59,1.33.15,0,.53.3.83-.37-1-.58Z"/><path class="cls-12" d="M360,75.3l.13-.79-1-.59-.83.37Z"/><polygon class="cls-4" points="355.58 73.8 355.77 74.52 356.85 73.46 355.58 73.8"/><polygon class="cls-33" points="356.43 72.36 356.06 73 356.85 73.46 357.31 74.11 357.61 74.03 357.02 72.7 356.43 72.36"/><polygon class="cls-16" points="355.77 74.52 355.77 74.52 357.31 74.11 356.85 73.46 355.77 74.52"/><path class="cls-35" d="M369.8,101.47a2.81,2.81,0,0,0-2.09-.82c-1.36,0-2,.55-2,1.43s.66,1.14,2.14,1.47c1.63.34,2.65.78,2.65,2.15s-1.16,2.07-2.76,2.07a4.59,4.59,0,0,1-3.08-1.11l.37-.62a3.82,3.82,0,0,0,2.72,1.06c1.22,0,2-.44,2-1.33s-.79-1.24-2.32-1.59-2.45-.75-2.45-2c0-1.43,1.13-2.21,2.74-2.21a3.58,3.58,0,0,1,2.44.89Z"/><path class="cls-35" d="M376.43,107.71h-.73v-3.15c0-1.33-.38-1.91-1.2-1.91a2.27,2.27,0,0,0-2.06,1.61v3.45h-.74v-5.63h.67v1.27a2.78,2.78,0,0,1,2.39-1.37c1.26,0,1.67,1,1.67,2.43Z"/><path class="cls-35" d="M377.59,104.91a2.8,2.8,0,1,1,5.59,0,2.8,2.8,0,1,1-5.59,0Zm2.79,2.26a2.28,2.28,0,1,0-2-2.25A2.15,2.15,0,0,0,380.38,107.17Z"/><path class="cls-35" d="M391.29,102.08H392l-2.41,5.63H389l-1.2-2.88-1.2,2.88H386l-2.41-5.63h.7l2.05,4.87,1.07-2.57-1-2.29h.63l.73,1.84.73-1.84h.62l-.95,2.29,1.07,2.57Z"/><polygon class="cls-5" points="385.84 275.69 382.68 274.83 382.59 275.06 380.06 280.64 385.84 281.93 385.84 275.69"/><polygon class="cls-27" points="385.84 290.96 385.84 288.37 382.6 289.96 385.84 290.96"/><polygon class="cls-20" points="385.84 269.74 382.68 274.83 385.84 275.69 385.84 269.74"/><polygon class="cls-27" points="380.04 285.91 380.04 285.92 382.59 289.95 382.6 289.96 385.84 288.37 385.84 284.88 380.04 285.91"/><polygon class="cls-4" points="385.84 281.93 380.06 280.64 380.04 280.69 380.04 285.91 385.84 284.88 385.84 281.93"/><polygon class="cls-25" points="385.84 275.69 389 274.83 389.09 275.06 391.62 280.64 385.84 281.93 385.84 275.69"/><polygon class="cls-30" points="385.84 290.96 385.84 288.37 389.08 289.96 385.84 290.96"/><polygon class="cls-4" points="385.84 269.74 389 274.83 385.84 275.69 385.84 269.74"/><polygon class="cls-32" points="391.64 285.91 391.64 285.92 389.09 289.95 389.08 289.96 385.84 288.37 385.84 284.88 391.64 285.91"/><polygon class="cls-27" points="385.84 281.93 391.62 280.64 391.64 280.69 391.64 285.91 385.84 284.88 385.84 281.93"/><polygon class="cls-2" points="357.58 246.28 358.93 243.59 361.77 242.19 375.1 251.1 357.58 246.28"/><polygon class="cls-3" points="357.58 246.28 367.48 259.58 375.1 251.1 357.58 246.28"/><polygon class="cls-4" points="357.58 246.28 367.48 259.58 350.39 257.44 357.58 246.28"/><polygon class="cls-5" points="357.58 246.28 351.2 250.6 350.39 257.44 357.58 246.28"/><polygon class="cls-6" points="348.41 255.34 351.2 250.6 350.39 257.44 348.41 255.34"/><polygon class="cls-7" points="348.41 255.34 348.41 261.03 350.39 257.44 348.41 255.34"/><polygon class="cls-8" points="351 263.55 367.48 259.58 350.39 257.44 351 263.55"/><polygon class="cls-9" points="351 263.55 367.48 259.58 350.39 257.44 351 263.55"/><polygon class="cls-10" points="351 263.55 367.48 259.58 353.2 267.51 351 263.55"/><polygon class="cls-11" points="358.18 268.81 367.48 259.58 353.2 267.51 358.18 268.81"/><polygon class="cls-12" points="358.18 268.81 367.48 259.58 367.48 268.81 358.18 268.81"/><polygon class="cls-13" points="375.52 268.81 367.48 259.58 367.48 268.81 375.52 268.81"/><polygon class="cls-14" points="351 263.55 348.41 261.03 350.39 257.44 351 263.55"/><polygon class="cls-15" points="351 263.55 348.41 261.03 353.2 267.51 351 263.55"/><polygon class="cls-16" points="367.94 242.19 361.77 242.19 375.1 251.1 367.94 242.19"/><polygon class="cls-17" points="367.94 242.19 372.53 238.01 375.1 251.1 367.94 242.19"/><polygon class="cls-18" points="384.56 245.88 372.53 238.01 375.1 251.1 384.56 245.88"/><polygon class="cls-19" points="384.56 245.88 372.53 238.01 379.11 235.72 384.56 245.88"/><polygon class="cls-20" points="384.56 245.88 384.56 236.62 379.11 235.72 384.56 245.88"/><polygon class="cls-21" points="384.56 245.88 384.56 236.62 389.17 239.51 384.56 245.88"/><polygon class="cls-22" points="384.56 245.88 392.56 243.79 389.17 239.51 384.56 245.88"/><polygon class="cls-23" points="384.56 245.88 392.56 243.79 394.05 247.48 384.56 245.88"/><polygon class="cls-24" points="384.56 245.88 384.56 255.31 375.1 251.1 384.56 245.88"/><polygon class="cls-25" points="384.56 245.88 384.56 255.31 394.05 247.48 384.56 245.88"/><polygon class="cls-26" points="398.14 249.67 384.56 255.31 394.05 247.48 398.14 249.67"/><polygon class="cls-27" points="398.14 249.67 384.56 255.31 401.13 254.26 398.14 249.67"/><polygon class="cls-28" points="401.53 259.58 384.56 255.31 401.13 254.26 401.53 259.58"/><polygon class="cls-29" points="401.53 259.58 384.56 255.31 400.03 264.02 401.53 259.58"/><polygon class="cls-30" points="396.05 267.51 384.56 255.31 400.03 264.02 396.05 267.51"/><polygon class="cls-29" points="396.05 267.51 384.56 255.31 390.37 268.81 396.05 267.51"/><polygon class="cls-31" points="383.29 268.81 384.56 255.31 390.37 268.81 383.29 268.81"/><polygon class="cls-32" points="383.29 268.81 384.56 255.31 375.52 268.81 383.29 268.81"/><polygon class="cls-33" points="367.48 259.58 384.56 255.31 375.1 251.1 367.48 259.58"/><polygon class="cls-34" points="367.48 259.58 384.56 255.31 375.52 268.81 367.48 259.58"/><path class="cls-35" d="M367.62,302.4a2.84,2.84,0,0,0-2.1-.82c-1.36,0-2,.55-2,1.43s.66,1.14,2.14,1.47c1.63.34,2.65.77,2.65,2.15s-1.16,2.07-2.75,2.07a4.57,4.57,0,0,1-3.08-1.11l.36-.62a3.84,3.84,0,0,0,2.73,1.06c1.22,0,1.95-.44,1.95-1.33s-.79-1.24-2.32-1.59-2.44-.75-2.44-2c0-1.43,1.12-2.21,2.73-2.21a3.56,3.56,0,0,1,2.44.89Z"/><path class="cls-35" d="M369.56,300.75h.73v6.61a.61.61,0,0,0,.66.67,1.68,1.68,0,0,0,.59-.12l.13.6a3.6,3.6,0,0,1-1,.19,1,1,0,0,1-1.09-1.09Z"/><path class="cls-35" d="M372,305.81a2.81,2.81,0,1,1,5.61,0,2.11,2.11,0,0,1,0,.3h-4.81a2.14,2.14,0,0,0,2.07,2.09,1.89,1.89,0,0,0,1.73-1l.64.17a2.57,2.57,0,0,1-2.39,1.4A2.85,2.85,0,0,1,372,305.81Zm4.91-.29a2.12,2.12,0,0,0-2.09-2,2.08,2.08,0,0,0-2.06,2Z"/><path class="cls-35" d="M378.35,305.81a2.81,2.81,0,1,1,5.61,0,2.11,2.11,0,0,1,0,.3h-4.81a2.14,2.14,0,0,0,2.07,2.09,1.89,1.89,0,0,0,1.73-1l.64.17a2.57,2.57,0,0,1-2.39,1.4A2.85,2.85,0,0,1,378.35,305.81Zm4.9-.29a2.11,2.11,0,0,0-2.08-2,2.08,2.08,0,0,0-2.06,2Z"/><path class="cls-35" d="M387.72,308.37a3.13,3.13,0,0,1-1.27.33,1.07,1.07,0,0,1-1.19-1.08v-4h-.78V303h.78v-1.9H386V303h1.29v.58H386v3.83a.62.62,0,0,0,.68.6,1.69,1.69,0,0,0,.85-.25Z"/><polygon class="cls-22" points="367.63 281.33 366.4 280.19 365.97 280.44 366.22 282.14 367.63 281.33"/><polygon class="cls-4" points="370.34 275.62 368.8 275.2 368.03 278.07 369.9 277.26 370.34 275.62"/><polygon class="cls-2" points="372.72 281.99 373.13 280.44 371.99 280.14 371.42 281.64 372.72 281.99"/><polygon class="cls-18" points="368.46 280.85 369.14 281.03 370.14 278.03 369.61 278.33 369.9 277.26 368.03 278.07 367.66 279.46 366.4 280.19 367.63 281.33 368.46 280.85"/><polygon class="cls-4" points="371.42 281.64 371.99 280.14 370.41 279.72 372 278.8 371.2 277.42 370.14 278.03 369.14 281.03 371.42 281.64"/><polygon class="cls-24" points="366.22 282.14 365.97 280.44 363.63 281.79 364.95 282.87 366.22 282.14"/><path class="cls-25" d="M355.5,283.28c.11.6.2,1.25.27,1.73l1,.25,2.57-1Z"/><path class="cls-29" d="M355,283.15l-.42,1.55,1.16.31c-.07-.48-.16-1.13-.27-1.73Z"/><path class="cls-24" d="M356.72,285.26l.61.17-.44.25L360,286l.09-.32,1.13-.65c0-.55.12-1.26.2-2l-2.13,1.22Z"/><path class="cls-12" d="M365,282.87l-1.32-1.08-2.21,1.28c-.08.7-.15,1.41-.2,2Z"/><polygon class="cls-4" points="357.4 289.53 358.93 289.94 358.13 286.81 357.4 289.53"/><polygon class="cls-33" points="355.63 286.41 356.43 287.79 358.13 286.81 359.83 286.64 360 286 356.89 285.68 355.63 286.41"/><polygon class="cls-16" points="358.93 289.94 358.95 289.94 359.83 286.64 358.13 286.81 358.93 289.94"/><polygon class="cls-22" points="363.15 286.32 364.75 285.82 364.75 285.33 363.15 284.69 363.15 286.32"/><polygon class="cls-4" points="366.74 291.52 367.87 290.39 365.77 288.3 365.54 290.32 366.74 291.52"/><polygon class="cls-2" points="360.03 290.39 361.17 291.52 362 290.69 360.98 289.44 360.03 290.39"/><polygon class="cls-18" points="363.15 287.27 362.65 287.77 364.75 290.14 364.75 289.53 365.54 290.32 365.77 288.3 364.75 287.27 364.75 285.82 363.15 286.32 363.15 287.27"/><polygon class="cls-4" points="360.98 289.44 362 290.69 363.15 289.53 363.15 291.37 364.75 291.37 364.75 290.14 362.65 287.77 360.98 289.44"/><polygon class="cls-24" points="363.15 284.69 364.75 285.33 364.75 282.63 363.15 283.23 363.15 284.69"/><path class="cls-25" d="M367.52,274.84l-1.63-.63-.69.69-.45,2.71Z"/><path class="cls-29" d="M367.87,274.49l-1.13-1.13-.85.85,1.63.63Z"/><path class="cls-24" d="M365.2,274.9l-.45.45v-.51l-1.83,2.54.23.23v1.31c.45.31,1,.73,1.6,1.15v-2.46Z"/><path class="cls-12" d="M363.15,283.22l1.6-.59v-2.56c-.57-.42-1.15-.84-1.6-1.15Z"/><polygon class="cls-4" points="361.17 273.36 360.05 274.48 363.15 275.35 361.17 273.36"/><polygon class="cls-33" points="364.75 273.38 363.15 273.38 363.15 275.35 362.45 276.9 362.92 277.38 364.75 274.85 364.75 273.38"/><polygon class="cls-16" points="360.05 274.48 360.03 274.49 362.45 276.9 363.15 275.35 360.05 274.48"/><polygon class="cls-22" points="366.83 285.12 367.2 283.48 366.77 283.23 365.42 284.3 366.83 285.12"/><polygon class="cls-4" points="373.13 284.61 372.72 283.06 369.85 283.83 371.49 285.05 373.13 284.61"/><polygon class="cls-2" points="368.8 289.85 370.35 289.44 370.04 288.3 368.45 288.56 368.8 289.85"/><polygon class="cls-18" points="367.66 285.59 367.84 286.27 370.94 285.64 370.42 285.34 371.49 285.05 369.85 283.83 368.46 284.21 367.2 283.48 366.83 285.12 367.66 285.59"/><polygon class="cls-4" points="368.45 288.56 370.04 288.3 369.62 286.72 371.2 287.64 372 286.25 370.94 285.64 367.84 286.27 368.45 288.56"/><polygon class="cls-24" points="365.42 284.3 366.77 283.23 364.44 281.89 364.15 283.57 365.42 284.3"/><path class="cls-25" d="M359.08,275.59c-.47.39-1,.8-1.37,1.1l.26.94,2.12,1.75Z"/><path class="cls-29" d="M359,275.12l-1.55.41.31,1.16c.39-.3.9-.71,1.37-1.1Z"/><path class="cls-24" d="M358,277.63l.16.62-.43-.26,1.27,2.86.32-.09,1.13.65,1.8-.81-2.13-1.22Z"/><path class="cls-12" d="M364.15,283.57l.29-1.68-2.22-1.29-1.8.81Z"/><polygon class="cls-4" points="354.62 280.36 355.03 281.89 357.33 279.63 354.62 280.36"/><polygon class="cls-33" points="356.43 277.26 355.63 278.65 357.33 279.63 358.33 281.02 358.97 280.85 357.69 277.99 356.43 277.26"/><polygon class="cls-16" points="355.03 281.89 355.03 281.9 358.33 281.02 357.33 279.63 355.03 281.89"/><polygon class="cls-5" points="169.11 356.3 161.93 354.36 161.71 354.87 155.98 367.56 169.11 370.48 169.11 356.3"/><polygon class="cls-27" points="169.11 391.01 169.11 385.13 161.75 388.74 169.11 391.01"/><polygon class="cls-20" points="169.11 342.79 161.93 354.36 169.11 356.3 169.11 342.79"/><polygon class="cls-27" points="155.93 379.52 155.93 379.55 161.71 388.72 161.75 388.74 169.11 385.13 169.11 377.18 155.93 379.52"/><polygon class="cls-4" points="169.11 370.48 155.98 367.56 155.93 367.67 155.93 379.52 169.11 377.18 169.11 370.48"/><polygon class="cls-25" points="169.11 356.3 176.28 354.36 176.5 354.87 182.23 367.56 169.11 370.48 169.11 356.3"/><polygon class="cls-30" points="169.11 391.01 169.11 385.13 176.46 388.74 169.11 391.01"/><polygon class="cls-4" points="169.11 342.79 176.28 354.36 169.11 356.3 169.11 342.79"/><polygon class="cls-32" points="182.28 379.52 182.28 379.55 176.5 388.72 176.46 388.74 169.11 385.13 169.11 377.18 182.28 379.52"/><polygon class="cls-27" points="169.11 370.48 182.23 367.56 182.28 367.67 182.28 379.52 169.11 377.18 169.11 370.48"/><path class="cls-35" d="M153.59,404.17v7.66h-.75v-3.58h-4.55v3.58h-.75v-7.66h.75v3.41h4.55v-3.41Z"/><path class="cls-35" d="M155.29,409.51v-3.3H156v3.17c0,1.29.43,1.91,1.31,1.91a2.22,2.22,0,0,0,2-1.54v-3.54h.73v4.67c0,.21.09.31.27.31v.64a1.37,1.37,0,0,1-.3,0,.56.56,0,0,1-.6-.53v-.78a2.71,2.71,0,0,1-2.38,1.38C155.9,411.94,155.29,411.11,155.29,409.51Z"/><path class="cls-35" d="M170.13,411.83h-.74v-3.14c0-1.31-.41-1.91-1.24-1.91a2,2,0,0,0-1.85,1.62v3.43h-.73v-3.14c0-1.33-.4-1.91-1.23-1.91a2,2,0,0,0-1.85,1.61v3.44h-.73v-5.62h.67v1.27a2.42,2.42,0,0,1,2.15-1.37,1.59,1.59,0,0,1,1.66,1.45,2.43,2.43,0,0,1,2.18-1.45c1.25,0,1.71,1,1.71,2.43Z"/><path class="cls-35" d="M171.65,405V404h.73V405Zm0,6.8v-5.62h.73v5.62Z"/><path class="cls-35" d="M173.59,409a2.74,2.74,0,0,1,2.57-2.93,2.54,2.54,0,0,1,2.14,1.27V404H179v6.93c0,.21.07.31.26.31v.64a1.24,1.24,0,0,1-.3,0,.57.57,0,0,1-.61-.53v-.6a2.52,2.52,0,0,1-2.1,1.2A2.82,2.82,0,0,1,173.59,409Zm4.71.86v-1.74a2.27,2.27,0,0,0-1.94-1.4,2.15,2.15,0,0,0-2,2.28,2.18,2.18,0,0,0,2.09,2.25A2,2,0,0,0,178.3,409.9Z"/><path class="cls-35" d="M180.69,405V404h.73V405Zm0,6.8v-5.62h.73v5.62Z"/><path class="cls-35" d="M185.72,411.56a2.94,2.94,0,0,1-1.27.34,1.07,1.07,0,0,1-1.19-1.08v-4h-.78v-.58h.78V404.3H184v1.91h1.3v.58H184v3.82a.64.64,0,0,0,.68.61,1.86,1.86,0,0,0,.86-.25Z"/><path class="cls-35" d="M186.9,413.57l.21,0a1.38,1.38,0,0,0,.41-.07c.16-.06.29-.27.86-1.7l-2.45-5.62h.76l2.09,4.94,1.92-4.94h.7l-2.92,7.26a1.14,1.14,0,0,1-1.21.78,2,2,0,0,1-.37,0Z"/><path class="cls-46" d="M167.37,371.09a4.05,4.05,0,0,1-4.05,4.16,4.25,4.25,0,0,1-1.62-.3,3.86,3.86,0,0,1-1.27-.86,3.78,3.78,0,0,1-.84-1.31,4.58,4.58,0,0,1-.3-1.69,4.91,4.91,0,0,1,.3-1.75,3.85,3.85,0,0,1,2.11-2.2,4.52,4.52,0,0,1,3.24,0,3.8,3.8,0,0,1,2.13,2.2A4.91,4.91,0,0,1,167.37,371.09Zm5.31-3.56a1.89,1.89,0,0,1,.42-.36,1.31,1.31,0,0,1,.71-.17h2.62l-12.72,16.37a1.68,1.68,0,0,1-.43.36,1.28,1.28,0,0,1-.63.15H160Zm-8.07,3.56a4.42,4.42,0,0,0-.09-1,1.7,1.7,0,0,0-.28-.62.84.84,0,0,0-.41-.32,1.25,1.25,0,0,0-.51-.1,1.19,1.19,0,0,0-.51.1.82.82,0,0,0-.4.32,1.9,1.9,0,0,0-.25.62,4.42,4.42,0,0,0-.09,1,3.91,3.91,0,0,0,.09.92,1.87,1.87,0,0,0,.25.6.93.93,0,0,0,.4.31,1.36,1.36,0,0,0,.51.09,1.44,1.44,0,0,0,.51-.09,1,1,0,0,0,.41-.31,1.67,1.67,0,0,0,.28-.6A3.91,3.91,0,0,0,164.61,371.09Zm12.47,8.82a4.26,4.26,0,0,1-.34,1.7,4.21,4.21,0,0,1-.89,1.32,3.86,3.86,0,0,1-1.29.85,4,4,0,0,1-1.54.3,4.23,4.23,0,0,1-1.61-.3,3.73,3.73,0,0,1-1.28-.85,3.92,3.92,0,0,1-.84-1.32,4.63,4.63,0,0,1-.3-1.7,4.81,4.81,0,0,1,.3-1.74,3.91,3.91,0,0,1,.84-1.34,3.75,3.75,0,0,1,1.28-.86,4.24,4.24,0,0,1,1.61-.31,4.34,4.34,0,0,1,1.63.31,3.7,3.7,0,0,1,1.29.86,4.24,4.24,0,0,1,.84,1.34A4.81,4.81,0,0,1,177.08,379.91Zm-2.76,0a3.77,3.77,0,0,0-.1-1,1.55,1.55,0,0,0-.27-.62.91.91,0,0,0-.41-.33,1.46,1.46,0,0,0-.52-.09,1.44,1.44,0,0,0-.51.09.87.87,0,0,0-.39.33,1.89,1.89,0,0,0-.26.62,4.35,4.35,0,0,0-.09,1,4.06,4.06,0,0,0,.09.93,1.8,1.8,0,0,0,.26.59.88.88,0,0,0,.39.31,1.25,1.25,0,0,0,.51.1,1.27,1.27,0,0,0,.52-.1.94.94,0,0,0,.41-.31,1.47,1.47,0,0,0,.27-.59A3.53,3.53,0,0,0,174.32,379.91Z"/><path class="cls-35" d="M157.39,301h.73l1.08,2.72,1.09-2.72H161l-1.34,3.27,1.47,3.47,2.78-6.79h.82l-3.24,7.67h-.67l-1.61-3.8-1.62,3.8h-.67L153.69,301h.8l2.79,6.79,1.45-3.47Z"/><path class="cls-35" d="M165.65,301.83v-1.08h.73v1.08Zm0,6.81V303h.73v5.63Z"/><path class="cls-35" d="M172.69,308.64H172v-3.15c0-1.33-.37-1.91-1.2-1.91a2.28,2.28,0,0,0-2.06,1.61v3.45H168V303h.67v1.27a2.75,2.75,0,0,1,2.38-1.37c1.27,0,1.68.95,1.68,2.43Z"/><path class="cls-35" d="M173.84,305.84a2.74,2.74,0,0,1,2.57-2.93,2.54,2.54,0,0,1,2.14,1.27v-3.43h.74v6.94c0,.2.07.3.26.3v.65l-.3,0a.57.57,0,0,1-.61-.53v-.6a2.53,2.53,0,0,1-2.1,1.2A2.82,2.82,0,0,1,173.84,305.84Zm4.71.86V305a2.27,2.27,0,0,0-1.94-1.4,2.15,2.15,0,0,0-2,2.28,2.19,2.19,0,0,0,2.09,2.26A2,2,0,0,0,178.55,306.7Z"/><polygon class="cls-47" points="152.24 287.9 158.24 287.9 158.24 282.78 152.24 280.56 152.24 287.9"/><polygon class="cls-48" points="152.24 275.27 152.24 280.56 158.24 282.78 158.24 272.11 152.24 275.27"/><polygon class="cls-49" points="158.24 238.11 152.24 238.11 152.24 247.29 158.24 243.78 158.24 238.11"/><polygon class="cls-50" points="158.24 265.04 152.24 261.34 152.24 275.27 158.24 272.11 158.24 265.04"/><polygon class="cls-51" points="158.24 243.78 152.24 247.29 152.24 261.34 158.24 265.04 158.24 243.78"/><polygon class="cls-52" points="190.89 254.41 160.51 238.11 169.08 252.34 190.89 254.41"/><polygon class="cls-53" points="169.08 252.34 160.51 265.04 190.89 254.41 169.08 252.34"/><polygon class="cls-54" points="160.51 238.11 160.51 265.04 169.08 252.34 160.51 238.11"/><polygon class="cls-53" points="173.8 262.19 173.8 264.59 196.08 263.77 173.8 262.19"/><polygon class="cls-54" points="184.39 258.69 184.39 261.08 194.74 260.26 184.39 258.69"/><polygon class="cls-50" points="173.8 240.71 173.8 238.32 196.08 239.14 173.8 240.71"/><polygon class="cls-51" points="184.39 244.22 184.39 241.82 194.74 242.64 184.39 244.22"/><polygon class="cls-2" points="52 250.8 53.35 248.11 56.2 246.7 69.53 255.62 52 250.8"/><polygon class="cls-3" points="52 250.8 61.9 264.1 69.53 255.62 52 250.8"/><polygon class="cls-4" points="52 250.8 61.9 264.1 44.81 261.96 52 250.8"/><polygon class="cls-5" points="52 250.8 45.63 255.11 44.81 261.96 52 250.8"/><polygon class="cls-6" points="42.84 259.86 45.63 255.11 44.81 261.96 42.84 259.86"/><polygon class="cls-7" points="42.84 259.86 42.84 265.55 44.81 261.96 42.84 259.86"/><polygon class="cls-8" points="45.42 268.06 61.9 264.1 44.81 261.96 45.42 268.06"/><polygon class="cls-9" points="45.42 268.06 61.9 264.1 44.81 261.96 45.42 268.06"/><polygon class="cls-10" points="45.42 268.06 61.9 264.1 47.62 272.02 45.42 268.06"/><polygon class="cls-11" points="52.6 273.32 61.9 264.1 47.62 272.02 52.6 273.32"/><polygon class="cls-12" points="52.6 273.32 61.9 264.1 61.9 273.32 52.6 273.32"/><polygon class="cls-13" points="69.94 273.32 61.9 264.1 61.9 273.32 69.94 273.32"/><polygon class="cls-14" points="45.42 268.06 42.84 265.55 44.81 261.96 45.42 268.06"/><polygon class="cls-15" points="45.42 268.06 42.84 265.55 47.62 272.02 45.42 268.06"/><polygon class="cls-16" points="62.37 246.7 56.2 246.7 69.53 255.62 62.37 246.7"/><polygon class="cls-17" points="62.37 246.7 66.95 242.53 69.53 255.62 62.37 246.7"/><polygon class="cls-18" points="78.98 250.4 66.95 242.53 69.53 255.62 78.98 250.4"/><polygon class="cls-19" points="78.98 250.4 66.95 242.53 73.53 240.24 78.98 250.4"/><polygon class="cls-20" points="78.98 250.4 78.98 241.13 73.53 240.24 78.98 250.4"/><polygon class="cls-21" points="78.98 250.4 78.98 241.13 83.59 244.02 78.98 250.4"/><polygon class="cls-22" points="78.98 250.4 86.98 248.31 83.59 244.02 78.98 250.4"/><polygon class="cls-23" points="78.98 250.4 86.98 248.31 88.47 252 78.98 250.4"/><polygon class="cls-24" points="78.98 250.4 78.98 259.82 69.53 255.62 78.98 250.4"/><polygon class="cls-25" points="78.98 250.4 78.98 259.82 88.47 252 78.98 250.4"/><polygon class="cls-26" points="92.56 254.19 78.98 259.82 88.47 252 92.56 254.19"/><polygon class="cls-27" points="92.56 254.19 78.98 259.82 95.55 258.77 92.56 254.19"/><polygon class="cls-28" points="95.95 264.1 78.98 259.82 95.55 258.77 95.95 264.1"/><polygon class="cls-29" points="95.95 264.1 78.98 259.82 94.45 268.54 95.95 264.1"/><polygon class="cls-30" points="90.47 272.02 78.98 259.82 94.45 268.54 90.47 272.02"/><polygon class="cls-29" points="90.47 272.02 78.98 259.82 84.79 273.32 90.47 272.02"/><polygon class="cls-31" points="77.71 273.32 78.98 259.82 84.79 273.32 77.71 273.32"/><polygon class="cls-32" points="77.71 273.32 78.98 259.82 69.94 273.32 77.71 273.32"/><polygon class="cls-33" points="61.9 264.1 78.98 259.82 69.53 255.62 61.9 264.1"/><polygon class="cls-34" points="61.9 264.1 78.98 259.82 69.94 273.32 61.9 264.1"/><path class="cls-35" d="M66.53,300.81v7.67h-.76v-3.59H61.22v3.59h-.74v-7.67h.74v3.41h4.55v-3.41Z"/><path class="cls-35" d="M67.83,306.87c0-1.05,1-1.73,2.38-1.73a4.84,4.84,0,0,1,1.65.29v-.5a1.49,1.49,0,0,0-1.58-1.62,3.15,3.15,0,0,0-1.81.67l-.26-.49a3.75,3.75,0,0,1,2.15-.74A2.08,2.08,0,0,1,72.6,305v2.54c0,.21.07.3.26.3v.65l-.3,0A.55.55,0,0,1,72,308l0-.44a2.8,2.8,0,0,1-2.18,1A1.8,1.8,0,0,1,67.83,306.87Zm3.85.37a.77.77,0,0,0,.18-.42v-.92a4.29,4.29,0,0,0-1.54-.29c-1,0-1.77.45-1.77,1.2A1.27,1.27,0,0,0,70,308,2.28,2.28,0,0,0,71.68,307.24Z"/><path class="cls-35" d="M74.19,301.67v-1.08h.74v1.08Zm0,6.81v-5.63h.74v5.63Z"/><path class="cls-35" d="M76.54,300.59h.73v6.62a.61.61,0,0,0,.66.67,1.82,1.82,0,0,0,.58-.12l.13.59a3.17,3.17,0,0,1-1,.19,1,1,0,0,1-1.09-1.09Z"/><polygon class="cls-55" points="56.16 290.98 59.91 284.49 63.65 290.98 56.16 290.98"/><polygon class="cls-56" points="63.65 290.98 59.91 284.49 67.4 284.49 63.65 290.98"/><polygon class="cls-57" points="67.4 284.49 59.91 284.49 63.65 278 67.4 284.49"/><polygon class="cls-55" points="63.65 278 59.91 284.49 56.16 278 63.65 278"/><polygon class="cls-58" points="56.16 278 59.91 284.49 52.41 284.49 56.16 278"/><polygon class="cls-59" points="52.41 284.49 59.91 284.49 56.16 290.98 52.41 284.49"/><polygon class="cls-55" points="73.59 290.98 77.34 284.49 81.08 290.98 73.59 290.98"/><polygon class="cls-56" points="81.08 290.98 77.34 284.49 84.83 284.49 81.08 290.98"/><polygon class="cls-57" points="84.83 284.49 77.34 284.49 81.08 278 84.83 284.49"/><polygon class="cls-55" points="81.08 278 77.34 284.49 73.59 278 81.08 278"/><polygon class="cls-58" points="73.59 278 77.34 284.49 69.84 284.49 73.59 278"/><polygon class="cls-59" points="69.84 284.49 77.34 284.49 73.59 290.98 69.84 284.49"/></svg>